<svg id="svg" version="1.1" xmlns="http://www.w3.org/2000/svg" style="display: block;" viewBox="0 0 500 500"><path d="M0 0 C165 0 330 0 500 0 C500 165 500 330 500 500 C335 500 170 500 0 500 C0 335 0 170 0 0 Z " transform="translate(0,0)" style="fill: rgb(0, 0, 0); --darkreader-inline-fill:#e8e6e3;" data-darkreader-inline-fill=""/><path d="M0 0 C4.62 0 9.24 0 14 0 C14 0.66 14 1.32 14 2 C14.61875 2.061875 15.2375 2.12375 15.875 2.1875 C18 3 18 3 19.25 5.5625 C19.4975 6.366875 19.745 7.17125 20 8 C20.66 8 21.32 8 22 8 C22.84069415 9.60032137 23.67231505 11.20541171 24.5 12.8125 C24.9640625 13.70582031 25.428125 14.59914063 25.90625 15.51953125 C27 18 27 18 27 21 C27.66 21 28.32 21 29 21 C29 22.32 29 23.64 29 25 C29.66 25 30.32 25 31 25 C33 28 33 28 33 31 C33.66 31 34.32 31 35 31 C35 32.32 35 33.64 35 35 C35.66 35 36.32 35 37 35 C37 36.32 37 37.64 37 39 C37.66 39 38.32 39 39 39 C39 40.32 39 41.64 39 43 C39.66 43 40.32 43 41 43 C41 44.32 41 45.64 41 47 C41.66 47 42.32 47 43 47 C43 47.66 43 48.32 43 49 C43.66 49 44.32 49 45 49 C45 50.32 45 51.64 45 53 C48.83327976 52.608849 51.80779753 52.09066154 55.3125 50.4375 C60.00982215 48.60634052 64.02549687 48.72975536 69 49 C69 48.34 69 47.68 69 47 C70.64574566 46.97311849 72.29161413 46.95365877 73.9375 46.9375 C74.85402344 46.92589844 75.77054688 46.91429687 76.71484375 46.90234375 C79 47 79 47 80 48 C81.53382679 48.1225355 83.07310519 48.17777938 84.61157227 48.20532227 C85.59251358 48.22526749 86.5734549 48.24521271 87.5841217 48.26576233 C89.18410255 48.29083107 89.18410255 48.29083107 90.81640625 48.31640625 C92.44569313 48.3475779 92.44569313 48.3475779 94.1078949 48.37937927 C97.59269627 48.44499442 101.07757568 48.50381511 104.5625 48.5625 C106.91862801 48.60567385 109.27474799 48.64928776 111.63085938 48.69335938 C117.42048937 48.80068792 123.21019775 48.90243165 129 49 C129 49.66 129 50.32 129 51 C129.66 51 130.32 51 131 51 C131 52.32 131 53.64 131 55 C131.66 55 132.32 55 133 55 C132.855625 55.70125 132.71125 56.4025 132.5625 57.125 C131.98521625 60.07556141 131.48304859 63.03270151 131 66 C130.34 66 129.68 66 129 66 C129.061875 67.0828125 129.061875 67.0828125 129.125 68.1875 C128.99078695 71.20729369 128.24829381 73.26935729 127 76 C126.34 76 125.68 76 125 76 C125.061875 77.051875 125.061875 77.051875 125.125 78.125 C124.98331668 81.38371628 124.13265314 83.9559947 123 87 C122.34 87 121.68 87 121 87 C121.061875 88.0828125 121.061875 88.0828125 121.125 89.1875 C120.99078695 92.20729369 120.24829381 94.26935729 119 97 C118.34 97 117.68 97 117 97 C117 98.32 117 99.64 117 101 C116.34 101 115.68 101 115 101 C115 102.98 115 104.96 115 107 C114.34 107 113.68 107 113 107 C113 108.98 113 110.96 113 113 C112.34 113 111.68 113 111 113 C111 113.66 111 114.32 111 115 C111.55171875 115.11214844 112.1034375 115.22429687 112.671875 115.33984375 C115.40065211 116.11360773 117.72772943 117.26817694 120.25 118.5625 C121.14203125 119.01753906 122.0340625 119.47257812 122.953125 119.94140625 C123.96632813 120.46541016 123.96632813 120.46541016 125 121 C125 121.66 125 122.32 125 123 C126.32 123 127.64 123 129 123 C129 123.66 129 124.32 129 125 C130.32 125 131.64 125 133 125 C133 125.66 133 126.32 133 127 C134.32 127 135.64 127 137 127 C137 127.66 137 128.32 137 129 C138.32 129 139.64 129 141 129 C141 129.66 141 130.32 141 131 C141.7734375 131.1546875 141.7734375 131.1546875 142.5625 131.3125 C149.11522894 133.1607056 155.15884202 136.15884202 160 141 C161.74401848 145.13057008 162.24755929 147.69024973 161 152 C160.814375 152.763125 160.62875 153.52625 160.4375 154.3125 C160.293125 154.869375 160.14875 155.42625 160 156 C159.34 156 158.68 156 158 156 C158 156.66 158 157.32 158 158 C157.34 158 156.68 158 156 158 C156 158.66 156 159.32 156 160 C155.34 160 154.68 160 154 160 C154 160.66 154 161.32 154 162 C152.21166992 163.42041016 152.21166992 163.42041016 149.73046875 165.0390625 C148.39725586 165.90917969 148.39725586 165.90917969 147.03710938 166.796875 C146.09673828 167.40015625 145.15636719 168.0034375 144.1875 168.625 C142.7943457 169.54152344 142.7943457 169.54152344 141.37304688 170.4765625 C140.48037109 171.0540625 139.58769531 171.6315625 138.66796875 172.2265625 C137.84578857 172.75846191 137.0236084 173.29036133 136.17651367 173.83837891 C134 175 134 175 131 175 C131 175.66 131 176.32 131 177 C129.68 177 128.36 177 127 177 C127 177.66 127 178.32 127 179 C126.34 179 125.68 179 125 179 C125 179.66 125 180.32 125 181 C123.68 181 122.36 181 121 181 C121 181.66 121 182.32 121 183 C120.34 183 119.68 183 119 183 C119 183.66 119 184.32 119 185 C117.68 185 116.36 185 115 185 C115 185.66 115 186.32 115 187 C114.34 187 113.68 187 113 187 C113 187.66 113 188.32 113 189 C112.34 189 111.68 189 111 189 C111.33 189.721875 111.66 190.44375 112 191.1875 C113.00603529 194.01697427 113.16977402 196.02895466 113 199 C113.66 199 114.32 199 115 199 C115 200.98 115 202.96 115 205 C115.66 205 116.32 205 117 205 C117 206.98 117 208.96 117 211 C117.66 211 118.32 211 119 211 C119 212.32 119 213.64 119 215 C119.66 215 120.32 215 121 215 C121 216.98 121 218.96 121 221 C121.66 221 122.32 221 123 221 C124.42258812 224.82320557 125.24042276 227.91281305 125 232 C125.66 232 126.32 232 127 232 C128.60355101 235.50776784 129.22036864 238.14354879 129 242 C129.66 242 130.32 242 131 242 C132.19287411 245.87684087 133 248.91621923 133 253 C132.34 253 131.68 253 131 253 C131 254.32 131 255.64 131 257 C124.44557868 259.39321259 118.2064206 259.25653752 111.28515625 259.1953125 C110.07427841 259.1924826 108.86340057 259.18965271 107.61582947 259.18673706 C103.76461732 259.1755803 99.91364136 259.15048355 96.0625 259.125 C93.44466483 259.1149644 90.82682599 259.10583956 88.20898438 259.09765625 C81.80590958 259.07565567 75.40297167 259.04222276 69 259 C69 258.34 69 257.68 69 257 C66.36 257 63.72 257 61 257 C61 256.34 61 255.68 61 255 C59.4840625 254.8453125 59.4840625 254.8453125 57.9375 254.6875 C53.78781792 253.96295233 50.78643737 252.77730734 47 251 C47 251.66 47 252.32 47 253 C46.34 253 45.68 253 45 253 C45 253.66 45 254.32 45 255 C44.34 255 43.68 255 43 255 C43 256.32 43 257.64 43 259 C42.34 259 41.68 259 41 259 C41 260.32 41 261.64 41 263 C40.34 263 39.68 263 39 263 C39 264.32 39 265.64 39 267 C38.34 267 37.68 267 37 267 C37 268.32 37 269.64 37 271 C36.34 271 35.68 271 35 271 C35 272.32 35 273.64 35 275 C34.34 275 33.68 275 33 275 C32.855625 275.598125 32.71125 276.19625 32.5625 276.8125 C32.1127561 278.56150404 31.57107659 280.28677023 31 282 C30.34 282 29.68 282 29 282 C29 282.99 29 283.98 29 285 C28.34 285 27.68 285 27 285 C27 286.65 27 288.3 27 290 C26.34 290 25.68 290 25 290 C24.67 291.98 24.34 293.96 24 296 C23.34 296 22.68 296 22 296 C21.8453125 296.8353125 21.8453125 296.8353125 21.6875 297.6875 C20.22357416 302.61161419 17.45998954 306.38828272 13.1875 309.1875 C8.86751232 310.79206685 5.67841053 310.23393467 1.375 308.75 C-3.18010844 306.38809192 -6.12740673 303.83753262 -8 299 C-8 298.01 -8 297.02 -8 296 C-8.66 296 -9.32 296 -10 296 C-10.84069415 294.39967863 -11.67231505 292.79458829 -12.5 291.1875 C-12.9640625 290.29417969 -13.428125 289.40085937 -13.90625 288.48046875 C-15 286 -15 286 -15 283 C-15.66 283 -16.32 283 -17 283 C-17 281.68 -17 280.36 -17 279 C-17.66 279 -18.32 279 -19 279 C-20.0076952 277.2335343 -21.00591714 275.46166177 -22 273.6875 C-22.556875 272.70136719 -23.11375 271.71523438 -23.6875 270.69921875 C-25 268 -25 268 -25 265 C-25.66 265 -26.32 265 -27 265 C-27 263.68 -27 262.36 -27 261 C-27.66 261 -28.32 261 -29 261 C-31 258 -31 258 -31 255 C-31.66 255 -32.32 255 -33 255 C-33 254.01 -33 253.02 -33 252 C-35.48030098 252.64171445 -37.95919722 253.28815321 -40.4375 253.9375 C-41.14455078 254.11990234 -41.85160156 254.30230469 -42.58007812 254.49023438 C-46.07574861 255.18149374 -46.07574861 255.18149374 -49 257 C-50.99958364 257.04080783 -53.00045254 257.04254356 -55 257 C-55 257.66 -55 258.32 -55 259 C-62.38003676 259.04633108 -69.76004218 259.08187308 -77.14019489 259.10362434 C-80.56706693 259.11406363 -83.9938395 259.12822532 -87.4206543 259.15087891 C-91.35985119 259.17675686 -95.29900774 259.18647162 -99.23828125 259.1953125 C-100.46960281 259.20563507 -101.70092438 259.21595764 -102.96955872 259.22659302 C-104.11051498 259.22674408 -105.25147125 259.22689514 -106.42700195 259.22705078 C-107.432939 259.231492 -108.43887604 259.23593323 -109.47529602 259.24050903 C-112 259 -112 259 -115 257 C-115 256.34 -115 255.68 -115 255 C-115.66 255 -116.32 255 -117 255 C-117 251.37 -117 247.74 -117 244 C-116.34 244 -115.68 244 -115 244 C-115 242.68 -115 241.36 -115 240 C-114.34 240 -113.68 240 -113 240 C-113.061875 239.319375 -113.12375 238.63875 -113.1875 237.9375 C-112.99376497 234.90231784 -112.13911155 232.84488957 -110.8671875 230.11328125 C-109.13426119 225.89024911 -108.12602172 221.4162412 -107 217 C-106.34 217 -105.68 217 -105 217 C-105 215.68 -105 214.36 -105 213 C-104.34 213 -103.68 213 -103 213 C-103.04125 211.948125 -103.0825 210.89625 -103.125 209.8125 C-103.00852125 206.25989827 -102.52791932 204.15133359 -101 201 C-100.34 201 -99.68 201 -99 201 C-99.04125 200.319375 -99.0825 199.63875 -99.125 198.9375 C-98.97450035 195.40075832 -98.05624147 192.36676967 -97 189 C-97.66 189 -98.32 189 -99 189 C-99 188.34 -99 187.68 -99 187 C-99.66 187 -100.32 187 -101 187 C-101 186.34 -101 185.68 -101 185 C-101.61875 184.855625 -102.2375 184.71125 -102.875 184.5625 C-105 184 -105 184 -107 183 C-107 182.34 -107 181.68 -107 181 C-107.61875 180.855625 -108.2375 180.71125 -108.875 180.5625 C-111 180 -111 180 -113 179 C-113 178.34 -113 177.68 -113 177 C-113.61875 176.855625 -114.2375 176.71125 -114.875 176.5625 C-117 176 -117 176 -119 175 C-119 174.34 -119 173.68 -119 173 C-120.32 173 -121.64 173 -123 173 C-123 172.34 -123 171.68 -123 171 C-123.52078125 170.91621094 -124.0415625 170.83242188 -124.578125 170.74609375 C-127.94698743 169.70826677 -130.77672743 167.90854286 -133.75 166.0625 C-134.65298828 165.52206055 -134.65298828 165.52206055 -135.57421875 164.97070312 C-137.08725394 164.03920867 -138.54894869 163.02538164 -140 162 C-140 161.34 -140 160.68 -140 160 C-140.66 160 -141.32 160 -142 160 C-142 159.34 -142 158.68 -142 158 C-142.66 158 -143.32 158 -144 158 C-144 156.68 -144 155.36 -144 154 C-144.66 154 -145.32 154 -146 154 C-146.05410687 152.22950311 -146.09284119 150.45853151 -146.125 148.6875 C-146.14820313 147.70136719 -146.17140625 146.71523437 -146.1953125 145.69921875 C-146 143 -146 143 -144 140 C-143.34 140 -142.68 140 -142 140 C-142 139.34 -142 138.68 -142 138 C-141.34 138 -140.68 138 -140 138 C-140 137.34 -140 136.68 -140 136 C-136.26436721 133.28317615 -132.44380808 132.13273539 -128 131 C-128 130.34 -128 129.68 -128 129 C-126.35 129 -124.7 129 -123 129 C-123 128.34 -123 127.68 -123 127 C-121.68 127 -120.36 127 -119 127 C-119 126.34 -119 125.68 -119 125 C-117.2335343 123.9923048 -115.46166177 122.99408286 -113.6875 122 C-112.70136719 121.443125 -111.71523437 120.88625 -110.69921875 120.3125 C-108 119 -108 119 -105 119 C-105 118.34 -105 117.68 -105 117 C-103.68 117 -102.36 117 -101 117 C-101 116.34 -101 115.68 -101 115 C-100.34 115 -99.68 115 -99 115 C-99 113.02 -99 111.04 -99 109 C-99.66 109 -100.32 109 -101 109 C-101.20496094 108.14535156 -101.40992188 107.29070312 -101.62109375 106.41015625 C-101.89050781 105.30542969 -102.15992188 104.20070313 -102.4375 103.0625 C-102.70433594 101.96035156 -102.97117188 100.85820312 -103.24609375 99.72265625 C-103.72995725 97.10578746 -103.72995725 97.10578746 -105 96 C-105.04063832 94.33382885 -105.042721 92.66611905 -105 91 C-105.66 91 -106.32 91 -107 91 C-107 89.68 -107 88.36 -107 87 C-107.66 87 -108.32 87 -109 87 C-109 84.69 -109 82.38 -109 80 C-109.66 80 -110.32 80 -111 80 C-111 78.02 -111 76.04 -111 74 C-111.66 74 -112.32 74 -113 74 C-114.60355101 70.49223216 -115.22036864 67.85645121 -115 64 C-115.66 64 -116.32 64 -117 64 C-117 59.71 -117 55.42 -117 51 C-116.34 51 -115.68 51 -115 51 C-115 50.34 -115 49.68 -115 49 C-113.01432292 48.77213542 -111.02864583 48.54427083 -109.04296875 48.31640625 C-106.80603607 48.02829265 -106.80603607 48.02829265 -104 47 C-104 47.66 -104 48.32 -104 49 C-98.89118974 48.88205478 -93.78258636 48.75782953 -88.67407227 48.62768555 C-86.93485712 48.58427427 -85.19559765 48.54260388 -83.45629883 48.50268555 C-80.96161512 48.44513232 -78.4671559 48.3813958 -75.97265625 48.31640625 C-75.19036148 48.29969376 -74.40806671 48.28298126 -73.60206604 48.26576233 C-70.00128219 48.49351269 -70.00128219 48.49351269 -67 47 C-65.31391034 46.92794489 -63.62499341 46.91613932 -61.9375 46.9375 C-61.01839844 46.94652344 -60.09929687 46.95554688 -59.15234375 46.96484375 C-58.44207031 46.97644531 -57.73179687 46.98804688 -57 47 C-57 47.66 -57 48.32 -57 49 C-56.24976563 48.95359375 -55.49953125 48.9071875 -54.7265625 48.859375 C-48.10471252 48.62585888 -43.1799644 49.22631655 -37.15625 52.02734375 C-35.10897775 52.95084156 -33.18991643 53.52717713 -31 54 C-31 53.01 -31 52.02 -31 51 C-30.34 51 -29.68 51 -29 51 C-28.855625 50.38125 -28.71125 49.7625 -28.5625 49.125 C-28 47 -28 47 -27 45 C-26.34 45 -25.68 45 -25 45 C-25 43.68 -25 42.36 -25 41 C-24.34 41 -23.68 41 -23 41 C-23 39.68 -23 38.36 -23 37 C-22.34 37 -21.68 37 -21 37 C-21 35.68 -21 34.36 -21 33 C-20.34 33 -19.68 33 -19 33 C-19 31.68 -19 30.36 -19 29 C-18.34 29 -17.68 29 -17 29 C-17 27.68 -17 26.36 -17 25 C-16.34 25 -15.68 25 -15 25 C-14.87753906 24.43796875 -14.75507813 23.8759375 -14.62890625 23.296875 C-13.9480131 20.81013481 -13.00647675 18.59485224 -11.9375 16.25 C-11.57527344 15.45078125 -11.21304688 14.6515625 -10.83984375 13.828125 C-10.56269531 13.22484375 -10.28554687 12.6215625 -10 12 C-9.34 12 -8.68 12 -8 12 C-8 10.68 -8 9.36 -8 8 C-7.34 8 -6.68 8 -6 8 C-5.67 6.68 -5.34 5.36 -5 4 C-4.34 4 -3.68 4 -3 4 C-3 3.34 -3 2.68 -3 2 C-2.01 2 -1.02 2 0 2 C0 1.34 0 0.68 0 0 Z " transform="translate(243,97)" style="fill: rgb(56, 56, 60); --darkreader-inline-fill:#c3beb6;" data-darkreader-inline-fill=""/><path d="M0 0 C2.86560982 1.39912234 5.5512236 2.94899439 8 5 C8 5.66 8 6.32 8 7 C8.66 7 9.32 7 10 7 C10 7.66 10 8.32 10 9 C10.5775 9.10441406 11.155 9.20882812 11.75 9.31640625 C14.34854617 10.1058951 15.8843712 11.24747621 18 12.9375 C23.36035517 17.19856358 27.25635 18.325635 34 19 C34 18.34 34 17.68 34 17 C34.66 17 35.32 17 36 17 C36 16.34 36 15.68 36 15 C37.32 15 38.64 15 40 15 C40 14.34 40 13.68 40 13 C41.32 13 42.64 13 44 13 C44 12.34 44 11.68 44 11 C45.134375 10.855625 46.26875 10.71125 47.4375 10.5625 C50.80777201 10.38828522 50.80777201 10.38828522 52 9 C54.5751945 8.87227986 57.11173199 8.81478146 59.6875 8.8125 C60.39583984 8.80025391 61.10417969 8.78800781 61.83398438 8.77539062 C66.27954217 8.76307606 69.81008865 9.33063374 74 11 C74 11.66 74 12.32 74 13 C75.98 13 77.96 13 80 13 C80 13.66 80 14.32 80 15 C81.32 15 82.64 15 84 15 C84 15.66 84 16.32 84 17 C85.60320974 17.19551338 87.20762986 17.38111983 88.8125 17.5625 C89.70582031 17.66691406 90.59914063 17.77132812 91.51953125 17.87890625 C94.13375572 18.15658709 94.13375572 18.15658709 97 17 C97 16.34 97 15.68 97 15 C98.32 15 99.64 15 101 15 C101 14.34 101 13.68 101 13 C102.58074564 12.18247697 104.16471223 11.37118003 105.75 10.5625 C106.63171875 10.11003906 107.5134375 9.65757812 108.421875 9.19140625 C110.64198566 8.16544602 112.61444619 7.48491397 115 7 C115 6.34 115 5.68 115 5 C116.0725 4.54625 117.145 4.0925 118.25 3.625 C120.28453544 2.76297795 122.19370454 1.89175334 124.125 0.8125 C126.6260443 -0.27128586 128.2938671 -0.33001621 131 0 C133.8125 1.375 133.8125 1.375 136 3 C136 3.66 136 4.32 136 5 C136.99 5 137.98 5 139 5 C139.33 5.99 139.66 6.98 140 8 C139.34 8 138.68 8 138 8 C138 9.32 138 10.64 138 12 C137.34 12 136.68 12 136 12 C135.89042969 12.54785156 135.78085937 13.09570312 135.66796875 13.66015625 C134.86609252 16.46906772 133.65428475 18.84197412 132.3125 21.4375 C129.03040656 27.88248251 125.9943496 34.41667818 123 41 C122.34 41 121.68 41 121 41 C121 42.32 121 43.64 121 45 C120.34 45 119.68 45 119 45 C119 47.97 119 50.94 119 54 C119.66 54 120.32 54 121 54 C121 55.98 121 57.96 121 60 C121.66 60 122.32 60 123 60 C123.02888146 63.31248187 123.04675799 66.62493167 123.0625 69.9375 C123.07087891 70.88302734 123.07925781 71.82855469 123.08789062 72.80273438 C123.09111328 73.70185547 123.09433594 74.60097656 123.09765625 75.52734375 C123.10289307 76.35999756 123.10812988 77.19265137 123.11352539 78.05053711 C123 80 123 80 122 81 C121.76807135 82.51469448 121.58784762 84.03754562 121.4375 85.5625 C121.35371094 86.38878906 121.26992188 87.21507812 121.18359375 88.06640625 C121.12300781 88.70449219 121.06242188 89.34257812 121 90 C120.34 90 119.68 90 119 90 C119.33 91.0725 119.66 92.145 120 93.25 C121 97 121 97 121 101 C121.66 101 122.32 101 123 101 C123 102.32 123 103.64 123 105 C123.66 105 124.32 105 125 105 C125.56267578 106.03447266 125.56267578 106.03447266 126.13671875 107.08984375 C126.64847656 108.02957031 127.16023437 108.96929687 127.6875 109.9375 C128.23019531 110.93652344 128.77289063 111.93554688 129.33203125 112.96484375 C130.37481551 114.8623692 131.43238694 116.75192871 132.51171875 118.62890625 C132.96160156 119.41136719 133.41148437 120.19382812 133.875 121 C134.28492188 121.70125 134.69484375 122.4025 135.1171875 123.125 C136 125 136 125 136 128 C136.66 128 137.32 128 138 128 C139.98 131.465 139.98 131.465 142 135 C133.26159323 142.08052723 133.26159323 142.08052723 129.0625 141.8125 C128.051875 141.214375 127.04125 140.61625 126 140 C124.12747453 138.97463466 122.2522288 137.95422894 120.375 136.9375 C119.45460938 136.41027344 118.53421875 135.88304687 117.5859375 135.33984375 C115.33616072 134.17417391 113.47187023 133.47000349 111 133 C111 132.34 111 131.68 111 131 C109.68 131 108.36 131 107 131 C107 130.34 107 129.68 107 129 C105.68 129 104.36 129 103 129 C103 128.34 103 127.68 103 127 C98.68803391 126.05675742 94.37934119 125.51958285 90 125 C90 125.66 90 126.32 90 127 C88.68 127 87.36 127 86 127 C86 127.66 86 128.32 86 129 C84.68 129 83.36 129 82 129 C82 129.66 82 130.32 82 131 C80.02 131 78.04 131 76 131 C76 131.66 76 132.32 76 133 C67.42 133 58.84 133 50 133 C50 132.34 50 131.68 50 131 C49.13375 131.04125 48.2675 131.0825 47.375 131.125 C43.87641532 130.99542279 41.25448403 130.23980344 38 129 C38 128.34 38 127.68 38 127 C36.68 127 35.36 127 34 127 C34 126.34 34 125.68 34 125 C29.21433859 126.19641535 25.20436767 127.79023067 20.89453125 130.1953125 C19 131 19 131 15 131 C15 131.66 15 132.32 15 133 C13.39967863 133.84069415 11.79458829 134.67231505 10.1875 135.5 C9.29417969 135.9640625 8.40085938 136.428125 7.48046875 136.90625 C5 138 5 138 2 138 C2 138.66 2 139.32 2 140 C-1.44012442 142.08864697 -1.44012442 142.08864697 -3.875 141.703125 C-6.20781781 140.93123675 -8.14161012 139.9486295 -10.25 138.6875 C-11.30960938 138.07455078 -11.30960938 138.07455078 -12.390625 137.44921875 C-13.18726563 136.73185547 -13.18726563 136.73185547 -14 136 C-14 134.68 -14 133.36 -14 132 C-13.34 132 -12.68 132 -12 132 C-12 130.68 -12 129.36 -12 128 C-11.34 128 -10.68 128 -10 128 C-9.89558594 127.46246094 -9.79117188 126.92492187 -9.68359375 126.37109375 C-8.82264511 123.38483189 -7.48669882 120.82384391 -6.0625 118.0625 C-4.19036466 114.42402567 -2.45803519 110.82470101 -1 107 C-0.34 107 0.32 107 1 107 C1 105.68 1 104.36 1 103 C1.66 103 2.32 103 3 103 C4.46939453 98.69677317 5.77443263 94.37702633 7 90 C6.34 90 5.68 90 5 90 C4.93941406 89.36191406 4.87882812 88.72382813 4.81640625 88.06640625 C4.73261719 87.24011719 4.64882812 86.41382813 4.5625 85.5625 C4.48128906 84.73878906 4.40007812 83.91507812 4.31640625 83.06640625 C4.21069185 81.01337975 4.21069185 81.01337975 3 80 C2.91368126 78.65732587 2.89293527 77.31025678 2.90234375 75.96484375 C2.90556641 75.15595703 2.90878906 74.34707031 2.91210938 73.51367188 C2.92048828 72.66353516 2.92886719 71.81339844 2.9375 70.9375 C2.94201172 70.08349609 2.94652344 69.22949219 2.95117188 68.34960938 C2.96299627 66.23304337 2.98093231 64.11651315 3 62 C3.66 62 4.32 62 5 62 C4.979375 60.700625 4.95875 59.40125 4.9375 58.0625 C4.91600546 56.70834367 4.92851801 55.35243917 5 54 C5.33 53.67 5.66 53.34 6 53 C6.23075082 51.65252916 6.41153063 50.29622435 6.5625 48.9375 C6.7790625 46.9884375 6.7790625 46.9884375 7 45 C6.34 45 5.68 45 5 45 C5 43.68 5 42.36 5 41 C4.34 41 3.68 41 3 41 C3 39.68 3 38.36 3 37 C2.34 37 1.68 37 1 37 C1 35.68 1 34.36 1 33 C0.34 33 -0.32 33 -1 33 C-1.30292969 32.38253906 -1.60585937 31.76507813 -1.91796875 31.12890625 C-4.45864676 25.99282794 -7.09795272 20.95857477 -9.984375 16.0078125 C-10.99550062 14.00889493 -11.54883053 12.18719114 -12 10 C-12.66 10 -13.32 10 -14 10 C-14 9.01 -14 8.02 -14 7 C-13.01 7 -12.02 7 -11 7 C-11 5.68 -11 4.36 -11 3 C-7.41366931 0.0465512 -4.56530332 -0.71612601 0 0 Z " transform="translate(187,181)" style="fill: rgb(56, 56, 59); --darkreader-inline-fill:#c4bfb7;" data-darkreader-inline-fill=""/><path d="M0 0 C2.86560982 1.39912234 5.5512236 2.94899439 8 5 C8 5.66 8 6.32 8 7 C8.66 7 9.32 7 10 7 C10 7.66 10 8.32 10 9 C10.5775 9.10441406 11.155 9.20882812 11.75 9.31640625 C14.34854617 10.1058951 15.8843712 11.24747621 18 12.9375 C23.36035517 17.19856358 27.25635 18.325635 34 19 C34 18.34 34 17.68 34 17 C34.66 17 35.32 17 36 17 C36 16.34 36 15.68 36 15 C37.32 15 38.64 15 40 15 C40 14.34 40 13.68 40 13 C41.32 13 42.64 13 44 13 C44 12.34 44 11.68 44 11 C45.134375 10.855625 46.26875 10.71125 47.4375 10.5625 C50.80777201 10.38828522 50.80777201 10.38828522 52 9 C54.5751945 8.87227986 57.11173199 8.81478146 59.6875 8.8125 C60.39583984 8.80025391 61.10417969 8.78800781 61.83398438 8.77539062 C66.27954217 8.76307606 69.81008865 9.33063374 74 11 C74 11.66 74 12.32 74 13 C75.98 13 77.96 13 80 13 C80 13.66 80 14.32 80 15 C81.32 15 82.64 15 84 15 C84 15.66 84 16.32 84 17 C85.60320974 17.19551338 87.20762986 17.38111983 88.8125 17.5625 C89.70582031 17.66691406 90.59914063 17.77132812 91.51953125 17.87890625 C94.13375572 18.15658709 94.13375572 18.15658709 97 17 C97 16.34 97 15.68 97 15 C98.32 15 99.64 15 101 15 C101 14.34 101 13.68 101 13 C102.58074564 12.18247697 104.16471223 11.37118003 105.75 10.5625 C106.63171875 10.11003906 107.5134375 9.65757812 108.421875 9.19140625 C110.64198566 8.16544602 112.61444619 7.48491397 115 7 C115 6.34 115 5.68 115 5 C116.0725 4.54625 117.145 4.0925 118.25 3.625 C120.28453544 2.76297795 122.19370454 1.89175334 124.125 0.8125 C126.6260443 -0.27128586 128.2938671 -0.33001621 131 0 C133.8125 1.375 133.8125 1.375 136 3 C136 3.66 136 4.32 136 5 C136.99 5 137.98 5 139 5 C139.33 5.99 139.66 6.98 140 8 C139.34 8 138.68 8 138 8 C138 9.32 138 10.64 138 12 C137.34 12 136.68 12 136 12 C135.89042969 12.54785156 135.78085937 13.09570312 135.66796875 13.66015625 C134.86609252 16.46906772 133.65428475 18.84197412 132.3125 21.4375 C129.03040656 27.88248251 125.9943496 34.41667818 123 41 C122.34 41 121.68 41 121 41 C121 42.32 121 43.64 121 45 C120.34 45 119.68 45 119 45 C119 47.97 119 50.94 119 54 C119.66 54 120.32 54 121 54 C121 55.98 121 57.96 121 60 C121.66 60 122.32 60 123 60 C123.02888146 63.31248187 123.04675799 66.62493167 123.0625 69.9375 C123.07087891 70.88302734 123.07925781 71.82855469 123.08789062 72.80273438 C123.09111328 73.70185547 123.09433594 74.60097656 123.09765625 75.52734375 C123.10289307 76.35999756 123.10812988 77.19265137 123.11352539 78.05053711 C123 80 123 80 122 81 C121.76807135 82.51469448 121.58784762 84.03754562 121.4375 85.5625 C121.35371094 86.38878906 121.26992188 87.21507812 121.18359375 88.06640625 C121.12300781 88.70449219 121.06242188 89.34257812 121 90 C120.34 90 119.68 90 119 90 C119.33 91.0725 119.66 92.145 120 93.25 C121 97 121 97 121 101 C121.66 101 122.32 101 123 101 C123 102.32 123 103.64 123 105 C123.66 105 124.32 105 125 105 C125.56267578 106.03447266 125.56267578 106.03447266 126.13671875 107.08984375 C126.64847656 108.02957031 127.16023437 108.96929687 127.6875 109.9375 C128.23019531 110.93652344 128.77289063 111.93554688 129.33203125 112.96484375 C130.37481551 114.8623692 131.43238694 116.75192871 132.51171875 118.62890625 C132.96160156 119.41136719 133.41148437 120.19382812 133.875 121 C134.28492188 121.70125 134.69484375 122.4025 135.1171875 123.125 C136 125 136 125 136 128 C136.66 128 137.32 128 138 128 C139.98 131.465 139.98 131.465 142 135 C133.26159323 142.08052723 133.26159323 142.08052723 129.0625 141.8125 C128.051875 141.214375 127.04125 140.61625 126 140 C124.12747453 138.97463466 122.2522288 137.95422894 120.375 136.9375 C119.45460938 136.41027344 118.53421875 135.88304687 117.5859375 135.33984375 C115.33616072 134.17417391 113.47187023 133.47000349 111 133 C111 132.34 111 131.68 111 131 C109.68 131 108.36 131 107 131 C107 130.34 107 129.68 107 129 C105.68 129 104.36 129 103 129 C103 128.34 103 127.68 103 127 C98.68803391 126.05675742 94.37934119 125.51958285 90 125 C90 125.66 90 126.32 90 127 C88.68 127 87.36 127 86 127 C86 127.66 86 128.32 86 129 C84.68 129 83.36 129 82 129 C82 129.66 82 130.32 82 131 C80.02 131 78.04 131 76 131 C76 131.66 76 132.32 76 133 C67.42 133 58.84 133 50 133 C50 132.34 50 131.68 50 131 C49.13375 131.04125 48.2675 131.0825 47.375 131.125 C43.87641532 130.99542279 41.25448403 130.23980344 38 129 C38 128.34 38 127.68 38 127 C36.68 127 35.36 127 34 127 C34 126.34 34 125.68 34 125 C29.21433859 126.19641535 25.20436767 127.79023067 20.89453125 130.1953125 C19 131 19 131 15 131 C15 131.66 15 132.32 15 133 C13.39967863 133.84069415 11.79458829 134.67231505 10.1875 135.5 C9.29417969 135.9640625 8.40085938 136.428125 7.48046875 136.90625 C5 138 5 138 2 138 C2 138.66 2 139.32 2 140 C-1.44012442 142.08864697 -1.44012442 142.08864697 -3.875 141.703125 C-6.20781781 140.93123675 -8.14161012 139.9486295 -10.25 138.6875 C-11.30960938 138.07455078 -11.30960938 138.07455078 -12.390625 137.44921875 C-13.18726563 136.73185547 -13.18726563 136.73185547 -14 136 C-14 134.68 -14 133.36 -14 132 C-13.34 132 -12.68 132 -12 132 C-12 130.68 -12 129.36 -12 128 C-11.34 128 -10.68 128 -10 128 C-9.89558594 127.46246094 -9.79117188 126.92492187 -9.68359375 126.37109375 C-8.82264511 123.38483189 -7.48669882 120.82384391 -6.0625 118.0625 C-4.19036466 114.42402567 -2.45803519 110.82470101 -1 107 C-0.34 107 0.32 107 1 107 C1 105.68 1 104.36 1 103 C1.66 103 2.32 103 3 103 C4.46939453 98.69677317 5.77443263 94.37702633 7 90 C6.34 90 5.68 90 5 90 C4.93941406 89.36191406 4.87882812 88.72382813 4.81640625 88.06640625 C4.73261719 87.24011719 4.64882812 86.41382813 4.5625 85.5625 C4.48128906 84.73878906 4.40007812 83.91507812 4.31640625 83.06640625 C4.21069185 81.01337975 4.21069185 81.01337975 3 80 C2.91368126 78.65732587 2.89293527 77.31025678 2.90234375 75.96484375 C2.90556641 75.15595703 2.90878906 74.34707031 2.91210938 73.51367188 C2.92048828 72.66353516 2.92886719 71.81339844 2.9375 70.9375 C2.94201172 70.08349609 2.94652344 69.22949219 2.95117188 68.34960938 C2.96299627 66.23304337 2.98093231 64.11651315 3 62 C3.66 62 4.32 62 5 62 C4.979375 60.700625 4.95875 59.40125 4.9375 58.0625 C4.91600546 56.70834367 4.92851801 55.35243917 5 54 C5.33 53.67 5.66 53.34 6 53 C6.23075082 51.65252916 6.41153063 50.29622435 6.5625 48.9375 C6.7790625 46.9884375 6.7790625 46.9884375 7 45 C6.34 45 5.68 45 5 45 C5 43.68 5 42.36 5 41 C4.34 41 3.68 41 3 41 C3 39.68 3 38.36 3 37 C2.34 37 1.68 37 1 37 C1 35.68 1 34.36 1 33 C0.34 33 -0.32 33 -1 33 C-1.30292969 32.38253906 -1.60585937 31.76507813 -1.91796875 31.12890625 C-4.45864676 25.99282794 -7.09795272 20.95857477 -9.984375 16.0078125 C-10.99550062 14.00889493 -11.54883053 12.18719114 -12 10 C-12.66 10 -13.32 10 -14 10 C-14 9.01 -14 8.02 -14 7 C-13.01 7 -12.02 7 -11 7 C-11 5.68 -11 4.36 -11 3 C-7.41366931 0.0465512 -4.56530332 -0.71612601 0 0 Z M35 25 C35 25.66 35 26.32 35 27 C34.34 27 33.68 27 33 27 C33 27.66 33 28.32 33 29 C32.01 29 31.02 29 30 29 C29.67 27.68 29.34 26.36 29 25 C25.64552375 26.17859976 23.16075263 27.1189965 21 30 C19.79950593 33.10007201 19.79950593 33.10007201 19 36 C20.32 36.33 21.64 36.66 23 37 C23 37.66 23 38.32 23 39 C22.34 39 21.68 39 21 39 C20.34 40.093125 19.68 41.18625 19 42.3125 C18.62875 42.92738281 18.2575 43.54226562 17.875 44.17578125 C16.78376001 46.11361926 16.78376001 46.11361926 17 49 C16.34 49 15.68 49 15 49 C15 50.98 15 52.96 15 55 C14.34 55 13.68 55 13 55 C11.25324198 60.99674407 10.74317158 66.27364221 10.875 72.5 C10.88402344 73.32242188 10.89304688 74.14484375 10.90234375 74.9921875 C10.92563135 76.99492083 10.96149041 78.99750154 11 81 C11.66 81 12.32 81 13 81 C12.9175 81.78375 12.835 82.5675 12.75 83.375 C13.09491511 88.37626906 14.98646081 92.4515588 17 97 C17.66 97 18.32 97 19 97 C19 98.32 19 99.64 19 101 C19.66 101 20.32 101 21 101 C21.103125 101.5775 21.20625 102.155 21.3125 102.75 C22.10896465 105.35661158 23.19065277 106.9735311 25 109 C25.66 109 26.32 109 27 109 C27 109.66 27 110.32 27 111 C27.66 111 28.32 111 29 111 C29 111.66 29 112.32 29 113 C31.81509993 115.2773501 31.81509993 115.2773501 35 115 C35 115.66 35 116.32 35 117 C49.4454827 124.65610583 61.77296471 127.46394279 78 123 C80.94784528 121.99228211 80.94784528 121.99228211 83 121 C83 120.34 83 119.68 83 119 C84.32 119 85.64 119 87 119 C87 118.34 87 117.68 87 117 C87.61875 116.855625 88.2375 116.71125 88.875 116.5625 C91.03258322 116.06847775 91.03258322 116.06847775 93 115 C93 114.34 93 113.68 93 113 C93.66 113 94.32 113 95 113 C95 112.34 95 111.68 95 111 C95.66 111 96.32 111 97 111 C97 110.34 97 109.68 97 109 C97.66 109 98.32 109 99 109 C99 108.34 99 107.68 99 107 C99.66 107 100.32 107 101 107 C101 106.34 101 105.68 101 105 C101.66 105 102.32 105 103 105 C105.2773501 102.18490007 105.2773501 102.18490007 105 99 C105.66 99 106.32 99 107 99 C107 97.68 107 96.36 107 95 C107.66 95 108.32 95 109 95 C109 93.68 109 92.36 109 91 C109.66 91 110.32 91 111 91 C114.53319863 78.46714446 115.74834681 67.81047603 113 55 C112.34 55 111.68 55 111 55 C111 53.02 111 51.04 111 49 C110.34 49 109.68 49 109 49 C109 47.68 109 46.36 109 45 C108.34 45 107.68 45 107 45 C107 43.68 107 42.36 107 41 C106.34 41 105.68 41 105 41 C105 40.34 105 39.68 105 39 C104.34 39 103.68 39 103 39 C102.7834375 38.071875 102.7834375 38.071875 102.5625 37.125 C102.06847775 34.96741678 102.06847775 34.96741678 101 33 C100.34 33 99.68 33 99 33 C99 32.34 99 31.68 99 31 C98.34 31 97.68 31 97 31 C97 30.34 97 29.68 97 29 C96.34 29 95.68 29 95 29 C95 28.34 95 27.68 95 27 C93.27843904 25.98696238 91.54738194 24.99005152 89.8125 24 C88.84957031 23.443125 87.88664062 22.88625 86.89453125 22.3125 C83.95111257 20.97783242 82.18119943 20.72084539 79 21 C79 20.34 79 19.68 79 19 C63.76695964 14.72405885 48.3583473 16.3015413 35 25 Z " transform="translate(187,181)" style="fill: rgb(0, 0, 0); --darkreader-inline-fill:#e8e6e3;" data-darkreader-inline-fill=""/><path d="M0 0 C0.66 0.33 1.32 0.66 2 1 C-0.27791066 5.93547309 -3.16694273 10.16694273 -7 14 C-7.33 14.99 -7.66 15.98 -8 17 C-8.66 17 -9.32 17 -10 17 C-10 17.66 -10 18.32 -10 19 C-10.66 19 -11.32 19 -12 19 C-12 20.32 -12 21.64 -12 23 C-12.66 23 -13.32 23 -14 23 C-14 23.66 -14 24.32 -14 25 C-14.66 25 -15.32 25 -16 25 C-16.0928125 26.0209375 -16.0928125 26.0209375 -16.1875 27.0625 C-17.08137829 30.29421382 -18.66299587 32.27399096 -20.62084961 34.9465332 C-23.07544872 38.60127442 -24.84783702 42.5729072 -26.6875 46.5625 C-27.07744141 47.38685547 -27.46738281 48.21121094 -27.86914062 49.06054688 C-29.85608745 53.30955623 -31.63635175 57.50069001 -33 62 C-33.66 62 -34.32 62 -35 62 C-35 63.32 -35 64.64 -35 66 C-35.66 66 -36.32 66 -37 66 C-36.9071875 67.0209375 -36.9071875 67.0209375 -36.8125 68.0625 C-37.05256396 71.823502 -38.4918445 74.56140546 -40 78 C-40.39764263 79.98821313 -40.75455166 81.98732362 -41 84 C-41.66 84 -42.32 84 -43 84 C-42.979375 85.134375 -42.95875 86.26875 -42.9375 87.4375 C-43 91 -43 91 -44 92 C-44.23363881 93.84891946 -44.41303635 95.70488031 -44.5625 97.5625 C-44.64628906 98.57441406 -44.73007813 99.58632812 -44.81640625 100.62890625 C-44.90728516 101.80259766 -44.90728516 101.80259766 -45 103 C-45.66 103 -46.32 103 -47 103 C-46.98839844 104.07121094 -46.97679688 105.14242187 -46.96484375 106.24609375 C-46.95546701 107.64322743 -46.94636669 109.04036299 -46.9375 110.4375 C-46.92912109 111.14455078 -46.92074219 111.85160156 -46.91210938 112.58007812 C-46.90346412 114.38693559 -46.94779989 116.19387603 -47 118 C-47.495 118.495 -47.495 118.495 -48 119 C-48.09909302 121.33160055 -48.12970504 123.66629942 -48.125 126 C-48.12886719 127.918125 -48.12886719 127.918125 -48.1328125 129.875 C-48.35860893 132.86687244 -48.35860893 132.86687244 -47 134 C-46.91286169 135.70772358 -46.89299993 137.41898649 -46.90234375 139.12890625 C-46.90556641 140.16337891 -46.90878906 141.19785156 -46.91210938 142.26367188 C-46.92048828 143.35228516 -46.92886719 144.44089844 -46.9375 145.5625 C-46.94201172 146.65498047 -46.94652344 147.74746094 -46.95117188 148.87304688 C-46.96300174 151.58208495 -46.97948457 154.29101599 -47 157 C-46.34 157 -45.68 157 -45 157 C-45 159.97 -45 162.94 -45 166 C-44.34 166 -43.68 166 -43 166 C-42.79503906 166.99902344 -42.59007813 167.99804688 -42.37890625 169.02734375 C-42.10949219 170.31769531 -41.84007813 171.60804688 -41.5625 172.9375 C-41.29566406 174.22527344 -41.02882813 175.51304687 -40.75390625 176.83984375 C-40.32818384 179.84638879 -40.32818384 179.84638879 -39 181 C-38.95919217 182.99958364 -38.95745644 185.00045254 -39 187 C-40.65 187 -42.3 187 -44 187 C-44.33 185.02 -44.66 183.04 -45 181 C-45.66 181 -46.32 181 -47 181 C-48.96818336 175.17745757 -50.40214229 170.16618181 -50 164 C-50.66 164 -51.32 164 -52 164 C-52 160.04 -52 156.08 -52 152 C-52.66 152 -53.32 152 -54 152 C-54.06058594 150.92878906 -54.12117188 149.85757813 -54.18359375 148.75390625 C-54.26798537 147.35675609 -54.35263406 145.95962143 -54.4375 144.5625 C-54.47681641 143.85544922 -54.51613281 143.14839844 -54.55664062 142.41992188 C-54.47624438 138.91309581 -54.47624438 138.91309581 -56 136 C-56.08669432 134.5112814 -56.10703494 133.018555 -56.09765625 131.52734375 C-56.09443359 130.62822266 -56.09121094 129.72910156 -56.08789062 128.80273438 C-56.07951172 127.85720703 -56.07113281 126.91167969 -56.0625 125.9375 C-56.05798828 124.98810547 -56.05347656 124.03871094 -56.04882812 123.06054688 C-56.0370011 120.70696935 -56.02052025 118.35351523 -56 116 C-55.34 116 -54.68 116 -54 116 C-54.01160156 115.07316406 -54.02320313 114.14632812 -54.03515625 113.19140625 C-54.04417969 111.99386719 -54.05320313 110.79632813 -54.0625 109.5625 C-54.07410156 108.36753906 -54.08570313 107.17257813 -54.09765625 105.94140625 C-54 103 -54 103 -53 102 C-52.79068103 99.83703727 -52.63202931 97.6690529 -52.5 95.5 C-52.11111111 89.11111111 -52.11111111 89.11111111 -51 88 C-50.8453125 86.5459375 -50.8453125 86.5459375 -50.6875 85.0625 C-50.15317723 81.00986733 -48.74527855 77.55329808 -47.16796875 73.80078125 C-45.89407203 70.74598544 -44.7274281 67.66040028 -43.5625 64.5625 C-41.5726133 59.35675925 -39.38107391 54.28748043 -37.015625 49.2421875 C-35.9122686 46.90910336 -35.9122686 46.90910336 -35 44 C-34.34 44 -33.68 44 -33 44 C-33 42.68 -33 41.36 -33 40 C-32.34 40 -31.68 40 -31 40 C-30.34 38.02 -29.68 36.04 -29 34 C-28.34 34 -27.68 34 -27 34 C-27 32.68 -27 31.36 -27 30 C-26.34 30 -25.68 30 -25 30 C-25 29.34 -25 28.68 -25 28 C-24.34 28 -23.68 28 -23 28 C-23 27.34 -23 26.68 -23 26 C-22.34 26 -21.68 26 -21 26 C-21 24.68 -21 23.36 -21 22 C-20.34 22 -19.68 22 -19 22 C-19 21.34 -19 20.68 -19 20 C-18.34 20 -17.68 20 -17 20 C-17 19.34 -17 18.68 -17 18 C-16.34 18 -15.68 18 -15 18 C-15 16.68 -15 15.36 -15 14 C-14.34 14 -13.68 14 -13 14 C-13 13.34 -13 12.68 -13 12 C-12.34 12 -11.68 12 -11 12 C-11 11.34 -11 10.68 -11 10 C-10.34 10 -9.68 10 -9 10 C-9 9.34 -9 8.68 -9 8 C-8.34 8 -7.68 8 -7 8 C-7 7.34 -7 6.68 -7 6 C-6.34 6 -5.68 6 -5 6 C-5 5.34 -5 4.68 -5 4 C-3.37373596 2.61767557 -1.7074998 1.28062485 0 0 Z " transform="translate(116,122)" style="fill: rgb(37, 37, 40); --darkreader-inline-fill:#d0ccc5;" data-darkreader-inline-fill=""/><path d="M0 0 C0.66 0 1.32 0 2 0 C2.04241723 2.33294775 2.04092937 4.66702567 2 7 C1.67 7.33 1.34 7.66 1 8 C0.76636119 9.84891946 0.58696365 11.70488031 0.4375 13.5625 C0.35371094 14.57441406 0.26992187 15.58632812 0.18359375 16.62890625 C0.12300781 17.41136719 0.06242187 18.19382813 0 19 C-0.66 19 -1.32 19 -2 19 C-1.98839844 20.07121094 -1.97679688 21.14242187 -1.96484375 22.24609375 C-1.95546701 23.64322743 -1.94636669 25.04036299 -1.9375 26.4375 C-1.92912109 27.14455078 -1.92074219 27.85160156 -1.91210938 28.58007812 C-1.90346412 30.38693559 -1.94779989 32.19387603 -2 34 C-2.495 34.495 -2.495 34.495 -3 35 C-3.09909302 37.33160055 -3.12970504 39.66629942 -3.125 42 C-3.12886719 43.918125 -3.12886719 43.918125 -3.1328125 45.875 C-3.35860893 48.86687244 -3.35860893 48.86687244 -2 50 C-1.91286169 51.70772358 -1.89299993 53.41898649 -1.90234375 55.12890625 C-1.90556641 56.16337891 -1.90878906 57.19785156 -1.91210938 58.26367188 C-1.92048828 59.35228516 -1.92886719 60.44089844 -1.9375 61.5625 C-1.94201172 62.65498047 -1.94652344 63.74746094 -1.95117188 64.87304688 C-1.96300174 67.58208495 -1.97948457 70.29101599 -2 73 C-1.34 73 -0.68 73 0 73 C0 75.97 0 78.94 0 82 C0.66 82 1.32 82 2 82 C2.20496094 82.99902344 2.40992187 83.99804688 2.62109375 85.02734375 C2.89050781 86.31769531 3.15992187 87.60804688 3.4375 88.9375 C3.70433594 90.22527344 3.97117187 91.51304687 4.24609375 92.83984375 C4.67181616 95.84638879 4.67181616 95.84638879 6 97 C6.04080783 98.99958364 6.04254356 101.00045254 6 103 C4.35 103 2.7 103 1 103 C0.505 100.03 0.505 100.03 0 97 C-0.66 97 -1.32 97 -2 97 C-3.96818336 91.17745757 -5.40214229 86.16618181 -5 80 C-5.66 80 -6.32 80 -7 80 C-7 76.04 -7 72.08 -7 68 C-7.66 68 -8.32 68 -9 68 C-9.06058594 66.92878906 -9.12117188 65.85757813 -9.18359375 64.75390625 C-9.26798537 63.35675609 -9.35263406 61.95962143 -9.4375 60.5625 C-9.47681641 59.85544922 -9.51613281 59.14839844 -9.55664062 58.41992188 C-9.47624438 54.91309581 -9.47624438 54.91309581 -11 52 C-11.08669432 50.5112814 -11.10703494 49.018555 -11.09765625 47.52734375 C-11.09443359 46.62822266 -11.09121094 45.72910156 -11.08789062 44.80273438 C-11.07951172 43.85720703 -11.07113281 42.91167969 -11.0625 41.9375 C-11.05798828 40.98810547 -11.05347656 40.03871094 -11.04882812 39.06054688 C-11.0370011 36.70696935 -11.02052025 34.35351523 -11 32 C-10.34 32 -9.68 32 -9 32 C-8.67 37.28 -8.34 42.56 -8 48 C-7.75119304 43.24412857 -7.75119304 43.24412857 -7.52197266 38.48730469 C-7.30164099 34.78054837 -6.70011499 32.24818717 -5 29 C-4.83329554 26.47404496 -4.83329554 26.47404496 -5 23.875 C-5.125 21.2421875 -5.125 21.2421875 -5 19 C-4.34 18.34 -3.68 17.68 -3 17 C-2.53837573 14.56747339 -2.53837573 14.56747339 -2.375 11.875 C-2.30023438 10.96492187 -2.22546875 10.05484375 -2.1484375 9.1171875 C-2.09945312 8.41851562 -2.05046875 7.71984375 -2 7 C-1.34 7 -0.68 7 0 7 C0 4.69 0 2.38 0 0 Z " transform="translate(71,206)" style="fill: rgb(45, 45, 48); --darkreader-inline-fill:#cbc6bf;" data-darkreader-inline-fill=""/><path d="M0 0 C2 1 2 1 3 2 C3.04063832 3.66617115 3.042721 5.33388095 3 7 C2.34 7 1.68 7 1 7 C0.855625 7.61875 0.71125 8.2375 0.5625 8.875 C0 11 0 11 -1 13 C-1.66 13 -2.32 13 -3 13 C-3 13.66 -3 14.32 -3 15 C-3.66 15 -4.32 15 -5 15 C-5 15.66 -5 16.32 -5 17 C-5.66 17 -6.32 17 -7 17 C-7 17.66 -7 18.32 -7 19 C-7.66 19 -8.32 19 -9 19 C-9 19.66 -9 20.32 -9 21 C-9.66 21 -10.32 21 -11 21 C-11 21.66 -11 22.32 -11 23 C-14 25 -14 25 -17 25 C-17 25.66 -17 26.32 -17 27 C-18.32 27 -19.64 27 -21 27 C-21 27.66 -21 28.32 -21 29 C-29.49079695 32.96237191 -39.75468327 34.20591088 -49 33 C-50.87890625 31.48046875 -50.87890625 31.48046875 -52 30 C-51.67 29.34 -51.34 28.68 -51 28 C-47.84702298 27.24929119 -45.04220645 26.99871165 -41.80078125 27.09765625 C-37.54114617 26.98821033 -33.90097558 26.17195487 -29.8125 25.0625 C-29.11447266 24.88009766 -28.41644531 24.69769531 -27.69726562 24.50976562 C-25.79661321 24.01244934 -23.89820069 23.50659375 -22 23 C-20.66753244 22.66322249 -19.33474139 22.32764969 -18 22 C-18 21.34 -18 20.68 -18 20 C-16.29731435 18.83149024 -14.5935672 17.66447661 -12.8828125 16.5078125 C-10.87705168 14.90153931 -9.62241238 13.30979555 -8.1875 11.1875 C-7.465625 10.135625 -6.74375 9.08375 -6 8 C-5.34 8 -4.68 8 -4 8 C-3.71125 7.05125 -3.4225 6.1025 -3.125 5.125 C-2 2 -2 2 0 0 Z " transform="translate(291,273)" style="fill: rgb(48, 48, 50); --darkreader-inline-fill:#c9c4bd;" data-darkreader-inline-fill=""/><path d="M0 0 C0.66 0.33 1.32 0.66 2 1 C-0.27791066 5.93547309 -3.16694273 10.16694273 -7 14 C-7.33 14.99 -7.66 15.98 -8 17 C-8.66 17 -9.32 17 -10 17 C-10 17.66 -10 18.32 -10 19 C-10.66 19 -11.32 19 -12 19 C-12 20.32 -12 21.64 -12 23 C-12.66 23 -13.32 23 -14 23 C-14 23.66 -14 24.32 -14 25 C-14.66 25 -15.32 25 -16 25 C-16.0928125 26.0209375 -16.0928125 26.0209375 -16.1875 27.0625 C-17.08137829 30.29421382 -18.66299587 32.27399096 -20.62084961 34.9465332 C-23.07544872 38.60127442 -24.84783702 42.5729072 -26.6875 46.5625 C-27.07744141 47.38685547 -27.46738281 48.21121094 -27.86914062 49.06054688 C-29.85608745 53.30955623 -31.63635175 57.50069001 -33 62 C-33.66 62 -34.32 62 -35 62 C-35 63.32 -35 64.64 -35 66 C-35.66 66 -36.32 66 -37 66 C-38.15837626 61.94568308 -37.83691257 59.78187881 -36 56 C-35.34 56 -34.68 56 -34 56 C-34 54.68 -34 53.36 -34 52 C-33.34 52 -32.68 52 -32 52 C-32 50.68 -32 49.36 -32 48 C-31.34 48 -30.68 48 -30 48 C-30 46.68 -30 45.36 -30 44 C-29.34 44 -28.68 44 -28 44 C-27.34 41.69 -26.68 39.38 -26 37 C-27.98 37.495 -27.98 37.495 -30 38 C-29.67 36.68 -29.34 35.36 -29 34 C-28.34 34 -27.68 34 -27 34 C-27 32.68 -27 31.36 -27 30 C-26.34 30 -25.68 30 -25 30 C-25 29.34 -25 28.68 -25 28 C-24.34 28 -23.68 28 -23 28 C-23 27.34 -23 26.68 -23 26 C-22.34 26 -21.68 26 -21 26 C-21 24.68 -21 23.36 -21 22 C-20.34 22 -19.68 22 -19 22 C-19 21.34 -19 20.68 -19 20 C-18.34 20 -17.68 20 -17 20 C-17 19.34 -17 18.68 -17 18 C-16.34 18 -15.68 18 -15 18 C-15 16.68 -15 15.36 -15 14 C-14.34 14 -13.68 14 -13 14 C-13 13.34 -13 12.68 -13 12 C-12.34 12 -11.68 12 -11 12 C-11 11.34 -11 10.68 -11 10 C-10.34 10 -9.68 10 -9 10 C-9 9.34 -9 8.68 -9 8 C-8.34 8 -7.68 8 -7 8 C-7 7.34 -7 6.68 -7 6 C-6.34 6 -5.68 6 -5 6 C-5 5.34 -5 4.68 -5 4 C-3.37373596 2.61767557 -1.7074998 1.28062485 0 0 Z " transform="translate(116,122)" style="fill: rgb(49, 48, 52); --darkreader-inline-fill:#c8c4bd;" data-darkreader-inline-fill=""/><path d="M0 0 C4.62 0 9.24 0 14 0 C14 0.66 14 1.32 14 2 C14.61875 2.061875 15.2375 2.12375 15.875 2.1875 C18 3 18 3 19.25 5.5625 C19.4975 6.366875 19.745 7.17125 20 8 C20.66 8 21.32 8 22 8 C22.84069415 9.60032137 23.67231505 11.20541171 24.5 12.8125 C24.9640625 13.70582031 25.428125 14.59914063 25.90625 15.51953125 C27 18 27 18 27 21 C27.66 21 28.32 21 29 21 C29 22.32 29 23.64 29 25 C29.66 25 30.32 25 31 25 C33 28 33 28 33 31 C33.66 31 34.32 31 35 31 C35 32.32 35 33.64 35 35 C35.66 35 36.32 35 37 35 C37 36.32 37 37.64 37 39 C37.66 39 38.32 39 39 39 C38.67 40.65 38.34 42.3 38 44 C37.67 43.01 37.34 42.02 37 41 C36.34 41 35.68 41 35 41 C35 40.01 35 39.02 35 38 C34.34 38 33.68 38 33 38 C33 36.35 33 34.7 33 33 C32.34 33 31.68 33 31 33 C31 32.01 31 31.02 31 30 C30.34 30 29.68 30 29 30 C29 29.01 29 28.02 29 27 C28.34 27 27.68 27 27 27 C27 26.01 27 25.02 27 24 C26.34 24 25.68 24 25 24 C25 22.68 25 21.36 25 20 C24.34 20 23.68 20 23 20 C23 18.68 23 17.36 23 16 C22.34 16 21.68 16 21 16 C21 14.68 21 13.36 21 12 C20.34 12 19.68 12 19 12 C19 11.01 19 10.02 19 9 C18.34 9 17.68 9 17 9 C17 8.01 17 7.02 17 6 C16.34 6 15.68 6 15 6 C15 5.34 15 4.68 15 4 C13.68 4 12.36 4 11 4 C11 3.34 11 2.68 11 2 C8.03 2 5.06 2 2 2 C2 2.66 2 3.32 2 4 C1.01 4 0.02 4 -1 4 C-1 4.66 -1 5.32 -1 6 C-1.66 6 -2.32 6 -3 6 C-3 7.32 -3 8.64 -3 10 C-3.66 10 -4.32 10 -5 10 C-5 10.99 -5 11.98 -5 13 C-5.66 13 -6.32 13 -7 13 C-7 13.99 -7 14.98 -7 16 C-7.66 16 -8.32 16 -9 16 C-9 17.32 -9 18.64 -9 20 C-9.66 20 -10.32 20 -11 20 C-11 20.99 -11 21.98 -11 23 C-11.99 22.67 -12.98 22.34 -14 22 C-12.68 18.7 -11.36 15.4 -10 12 C-9.34 12 -8.68 12 -8 12 C-8 10.68 -8 9.36 -8 8 C-7.34 8 -6.68 8 -6 8 C-5.67 6.68 -5.34 5.36 -5 4 C-4.34 4 -3.68 4 -3 4 C-3 3.34 -3 2.68 -3 2 C-2.01 2 -1.02 2 0 2 C0 1.34 0 0.68 0 0 Z " transform="translate(243,97)" style="fill: rgb(79, 80, 83); --darkreader-inline-fill:#b5aea5;" data-darkreader-inline-fill=""/><path d="M0 0 C1.64574566 -0.02688151 3.29161413 -0.04634123 4.9375 -0.0625 C5.85402344 -0.07410156 6.77054687 -0.08570313 7.71484375 -0.09765625 C10 0 10 0 11 1 C12.53382679 1.1225355 14.07310519 1.17777938 15.61157227 1.20532227 C16.59251358 1.22526749 17.5734549 1.24521271 18.5841217 1.26576233 C20.18410255 1.29083107 20.18410255 1.29083107 21.81640625 1.31640625 C22.9025975 1.33718735 23.98878876 1.35796844 25.1078949 1.37937927 C28.59269627 1.44499442 32.07757568 1.50381511 35.5625 1.5625 C37.91862801 1.60567385 40.27474799 1.64928776 42.63085938 1.69335938 C48.42048937 1.80068792 54.21019775 1.90243165 60 2 C60 2.66 60 3.32 60 4 C60.66 4 61.32 4 62 4 C62 5.32 62 6.64 62 8 C61.34 8 60.68 8 60 8 C60 7.34 60 6.68 60 6 C59.34 6 58.68 6 58 6 C58 5.34 58 4.68 58 4 C36.55 4 15.1 4 -7 4 C-7 4.66 -7 5.32 -7 6 C-8.65 6 -10.3 6 -12 6 C-12 6.66 -12 7.32 -12 8 C-13.65 8 -15.3 8 -17 8 C-17 8.66 -17 9.32 -17 10 C-18.32 10 -19.64 10 -21 10 C-21 10.66 -21 11.32 -21 12 C-21.99 12 -22.98 12 -24 12 C-24 10.02 -24 8.04 -24 6 C-22.989375 5.896875 -21.97875 5.79375 -20.9375 5.6875 C-17.00118963 5.17921116 -17.00118963 5.17921116 -13.6875 3.4375 C-8.99017785 1.60634052 -4.97450313 1.72975536 0 2 C0 1.34 0 0.68 0 0 Z " transform="translate(312,144)" style="fill: rgb(83, 82, 85); --darkreader-inline-fill:#b3ada3;" data-darkreader-inline-fill=""/><path d="M0 0 C0 0.66 0 1.32 0 2 C5.10881026 1.88205478 10.21741364 1.75782953 15.32592773 1.62768555 C17.06514288 1.58427427 18.80440235 1.54260388 20.54370117 1.50268555 C23.03838488 1.44513232 25.5328441 1.3813958 28.02734375 1.31640625 C28.80963852 1.29969376 29.59193329 1.28298126 30.39793396 1.26576233 C33.99871781 1.49351269 33.99871781 1.49351269 37 0 C38.68608966 -0.07205511 40.37500659 -0.08386068 42.0625 -0.0625 C42.98160156 -0.05347656 43.90070313 -0.04445312 44.84765625 -0.03515625 C45.55792969 -0.02355469 46.26820313 -0.01195312 47 0 C47 0.66 47 1.32 47 2 C47.66 2.33 48.32 2.66 49 3 C48 4 48 4 45.75376892 4.12025452 C44.76115555 4.11803391 43.76854218 4.11581329 42.74584961 4.11352539 C41.62476303 4.11344986 40.50367645 4.11337433 39.34861755 4.11329651 C37.51896202 4.10555458 37.51896202 4.10555458 35.65234375 4.09765625 C34.41078018 4.0962413 33.16921661 4.09482635 31.89002991 4.09336853 C28.58394509 4.08870591 25.27792854 4.07971497 21.97186279 4.06866455 C18.6003885 4.05844827 15.22890717 4.05387045 11.85742188 4.04882812 C5.23826225 4.03777395 -1.38086493 4.02101736 -8 4 C-8 4.66 -8 5.32 -8 6 C-8.66 6 -9.32 6 -10 6 C-10 8.97 -10 11.94 -10 15 C-9.34 15 -8.68 15 -8 15 C-7.67 18.63 -7.34 22.26 -7 26 C-6.34 26 -5.68 26 -5 26 C-5.33 28.31 -5.66 30.62 -6 33 C-6.33 33 -6.66 33 -7 33 C-7 31.02 -7 29.04 -7 27 C-7.66 27 -8.32 27 -9 27 C-10.60355101 23.49223216 -11.22036864 20.85645121 -11 17 C-11.66 17 -12.32 17 -13 17 C-13 12.71 -13 8.42 -13 4 C-12.34 4 -11.68 4 -11 4 C-11 3.34 -11 2.68 -11 2 C-8.94921875 1.77213542 -6.8984375 1.54427083 -4.84765625 1.31640625 C-2.53381977 0.92016787 -2.40516179 0 0 0 Z " transform="translate(139,144)" style="fill: rgb(83, 82, 84); --darkreader-inline-fill:#b4ada3;" data-darkreader-inline-fill=""/><path d="M0 0 C0.99 0 1.98 0 3 0 C3 1.32 3 2.64 3 4 C2.34 4 1.68 4 1 4 C0.34 7.63 -0.32 11.26 -1 15 C-1.66 15 -2.32 15 -3 15 C-3.10441406 15.69996094 -3.20882812 16.39992188 -3.31640625 17.12109375 C-4.09940375 20.41863179 -5.38193146 23.05405327 -6.9375 26.0625 C-7.46214844 27.08472656 -7.98679688 28.10695313 -8.52734375 29.16015625 C-9.25630859 30.56587891 -9.25630859 30.56587891 -10 32 C-10.66929867 33.33201408 -11.33717854 34.66475098 -12 36 C-12.66 36 -13.32 36 -14 36 C-14.33 36.99 -14.66 37.98 -15 39 C-15 38.01 -15 37.02 -15 36 C-15.66 36 -16.32 36 -17 36 C-16.63895735 27.87654037 -12.31420972 21.2324045 -7.75 14.6875 C-5.8551251 12.03049041 -5.8551251 12.03049041 -4.9375 8.75 C-4 6 -4 6 -1 4 C-0.27617533 1.94074861 -0.27617533 1.94074861 0 0 Z " transform="translate(189,273)" style="fill: rgb(54, 53, 56); --darkreader-inline-fill:#c6c1b9;" data-darkreader-inline-fill=""/><path d="M0 0 C1.32 0.66 2.64 1.32 4 2 C3.67 3.32 3.34 4.64 3 6 C2.34 6 1.68 6 1 6 C1 7.32 1 8.64 1 10 C0.34 10 -0.32 10 -1 10 C-1 11.32 -1 12.64 -1 14 C-1.66 14 -2.32 14 -3 14 C-3 15.32 -3 16.64 -3 18 C-4.32 18 -5.64 18 -7 18 C-7.66 19.98 -8.32 21.96 -9 24 C-9.66 24 -10.32 24 -11 24 C-11 25.32 -11 26.64 -11 28 C-11.66 28 -12.32 28 -13 28 C-13 29.32 -13 30.64 -13 32 C-13.66 32 -14.32 32 -15 32 C-15 32.99 -15 33.98 -15 35 C-15.66 35 -16.32 35 -17 35 C-17 36.32 -17 37.64 -17 39 C-17.66 39 -18.32 39 -19 39 C-19 40.32 -19 41.64 -19 43 C-19.66 43 -20.32 43 -21 43 C-21.33 44.32 -21.66 45.64 -22 47 C-22.99 47 -23.98 47 -25 47 C-18.66666667 34.33333333 -12.33333333 21.66666667 -6 9 C-5.34 9 -4.68 9 -4 9 C-3.896875 8.443125 -3.79375 7.88625 -3.6875 7.3125 C-2.86866423 4.55823422 -1.54146219 2.41272343 0 0 Z " transform="translate(285,346)" style="fill: rgb(50, 50, 52); --darkreader-inline-fill:#c8c3bc;" data-darkreader-inline-fill=""/><path d="M0 0 C-0.33 1.32 -0.66 2.64 -1 4 C-2.32 4 -3.64 4 -5 4 C-5 4.66 -5 5.32 -5 6 C-5.66 6 -6.32 6 -7 6 C-7 6.66 -7 7.32 -7 8 C-8.98 8.66 -10.96 9.32 -13 10 C-13 10.66 -13 11.32 -13 12 C-13.99 12 -14.98 12 -16 12 C-16 12.66 -16 13.32 -16 14 C-16.99 14 -17.98 14 -19 14 C-19 14.66 -19 15.32 -19 16 C-19.99 16 -20.98 16 -22 16 C-22 17.32 -22 18.64 -22 20 C-22.66 20 -23.32 20 -24 20 C-24 20.66 -24 21.32 -24 22 C-25.32 22 -26.64 22 -28 22 C-28 22.66 -28 23.32 -28 24 C-28.66 24 -29.32 24 -30 24 C-30 24.66 -30 25.32 -30 26 C-31.32 26 -32.64 26 -34 26 C-34 26.66 -34 27.32 -34 28 C-35.98 27.67 -37.96 27.34 -40 27 C-40 26.34 -40 25.68 -40 25 C-37.84765625 23.5625 -37.84765625 23.5625 -35.0625 22 C-31.37612792 20.13922105 -31.37612792 20.13922105 -29 17 C-27.50681663 16.13773918 -25.97834936 15.3363692 -24.4375 14.5625 C-18.38984729 11.37156745 -12.87267762 7.57307119 -7.30834961 3.60766602 C-2.20024376 0 -2.20024376 0 0 0 Z " transform="translate(392,256)" style="fill: rgb(50, 50, 53); --darkreader-inline-fill:#c7c3bb;" data-darkreader-inline-fill=""/><path d="M0 0 C0.33 0.99 0.66 1.98 1 3 C-1.55876258 5.66537768 -4.24633707 8.16417062 -7 10.625 C-7.66 11.21539062 -8.32 11.80578125 -9 12.4140625 C-10.92726951 13.94232699 -12.76446093 14.9920114 -15 16 C-15 15.01 -15 14.02 -15 13 C-15.99 13.33 -16.98 13.66 -18 14 C-18.66 13.67 -19.32 13.34 -20 13 C-18.68874798 7.3616163 -16.671254 5.14594657 -12 2 C-11.01 2.33 -10.02 2.66 -9 3 C-9 3.99 -9 4.98 -9 6 C-8.01 6 -7.02 6 -6 6 C-6 5.34 -6 4.68 -6 4 C-5.34 4 -4.68 4 -4 4 C-4 3.34 -4 2.68 -4 2 C-2.68 1.34 -1.36 0.68 0 0 Z " transform="translate(226,204)" style="fill: rgb(62, 62, 67); --darkreader-inline-fill:#bfbab1;" data-darkreader-inline-fill=""/><path d="M0 0 C0.99 0.66 1.98 1.32 3 2 C2.835 2.70382812 2.67 3.40765625 2.5 4.1328125 C1.00389219 13.08608266 3.48719968 17.88772806 8.21484375 25.1640625 C10 28 10 28 10 30 C9.34 30 8.68 30 8 30 C8 29.34 8 28.68 8 28 C6.02 27.34 4.04 26.68 2 26 C2 25.01 2 24.02 2 23 C1.34 23 0.68 23 0 23 C0 21.68 0 20.36 0 19 C-0.66 19 -1.32 19 -2 19 C-3.80230168 15.17010894 -4.19622241 12.21878192 -4 8 C-3.34 8 -2.68 8 -2 8 C-2 6.68 -2 5.36 -2 4 C-1.34 4 -0.68 4 0 4 C0 2.68 0 1.36 0 0 Z " transform="translate(310,263)" style="fill: rgb(53, 52, 54); --darkreader-inline-fill:#c7c2ba;" data-darkreader-inline-fill=""/><path d="M0 0 C4.95 0 9.9 0 15 0 C15 0.66 15 1.32 15 2 C16.98 2 18.96 2 21 2 C21 2.66 21 3.32 21 4 C22.11375 4.144375 23.2275 4.28875 24.375 4.4375 C28 5 28 5 30 6 C30 7.65 30 9.3 30 11 C27.36 10.67 24.72 10.34 22 10 C22 9.34 22 8.68 22 8 C20.68 8 19.36 8 18 8 C18 7.34 18 6.68 18 6 C16.02 6 14.04 6 12 6 C12 5.34 12 4.68 12 4 C10.9790625 4.061875 10.9790625 4.061875 9.9375 4.125 C6.40075832 3.97450035 3.36676967 3.05624147 0 2 C0 1.34 0 0.68 0 0 Z " transform="translate(249,188)" style="fill: rgb(69, 69, 72); --darkreader-inline-fill:#bbb6ad;" data-darkreader-inline-fill=""/><path d="M0 0 C2.64 0 5.28 0 8 0 C8.33 0.66 8.66 1.32 9 2 C8.34 2 7.68 2 7 2 C7 2.66 7 3.32 7 4 C8.32 4 9.64 4 11 4 C10.67 4.99 10.34 5.98 10 7 C8.4221875 6.6596875 8.4221875 6.6596875 6.8125 6.3125 C2.45541234 5.95536167 1.48425007 6.58782687 -2 9 C-6.13064362 10.72110151 -8.67516844 11.27200928 -13 10 C-13.33 8.68 -13.66 7.36 -14 6 C-12.02 6 -10.04 6 -8 6 C-8 5.34 -8 4.68 -8 4 C-6.68 4 -5.36 4 -4 4 C-4 3.34 -4 2.68 -4 2 C-2.68 2 -1.36 2 0 2 C0 1.34 0 0.68 0 0 Z " transform="translate(277,306)" style="fill: rgb(48, 48, 50); --darkreader-inline-fill:#c9c4bd;" data-darkreader-inline-fill=""/><path d="M0 0 C0.66 0 1.32 0 2 0 C2 2.97 2 5.94 2 9 C2.66 9 3.32 9 4 9 C4.20496094 9.99902344 4.40992187 10.99804688 4.62109375 12.02734375 C4.89050781 13.31769531 5.15992187 14.60804688 5.4375 15.9375 C5.70433594 17.22527344 5.97117187 18.51304687 6.24609375 19.83984375 C6.67181616 22.84638879 6.67181616 22.84638879 8 24 C8.04080783 25.99958364 8.04254356 28.00045254 8 30 C6.35 30 4.7 30 3 30 C2.67 28.02 2.34 26.04 2 24 C1.34 24 0.68 24 0 24 C-0.38063221 21.6739143 -0.71269945 19.33944736 -1 17 C-0.67 16.67 -0.34 16.34 0 16 C0.07319621 13.30345146 0.09242537 10.63308542 0.0625 7.9375 C0.05798828 7.17888672 0.05347656 6.42027344 0.04882812 5.63867188 C0.0370068 3.75908129 0.01907078 1.87953101 0 0 Z " transform="translate(69,279)" style="fill: rgb(60, 60, 62); --darkreader-inline-fill:#c1bcb4;" data-darkreader-inline-fill=""/><path d="M0 0 C0 0.66 0 1.32 0 2 C-0.99 2 -1.98 2 -3 2 C-3 2.66 -3 3.32 -3 4 C-3.99 4 -4.98 4 -6 4 C-6 4.66 -6 5.32 -6 6 C-7.32 6 -8.64 6 -10 6 C-10 6.66 -10 7.32 -10 8 C-10.66 8 -11.32 8 -12 8 C-12 9.32 -12 10.64 -12 12 C-12.66 12 -13.32 12 -14 12 C-14 14.64 -14 17.28 -14 20 C-13.34 20 -12.68 20 -12 20 C-12 20.99 -12 21.98 -12 23 C-11.4225 23.2475 -10.845 23.495 -10.25 23.75 C-7.70120619 25.16599656 -6.05276785 26.94723215 -4 29 C-3.01 29.33 -2.02 29.66 -1 30 C-1.33 30.99 -1.66 31.98 -2 33 C-4.66666667 31.66666667 -7.33333333 30.33333333 -10 29 C-10 28.34 -10 27.68 -10 27 C-10.66 27 -11.32 27 -12 27 C-12 26.34 -12 25.68 -12 25 C-12.66 25 -13.32 25 -14 25 C-14 23.68 -14 22.36 -14 21 C-14.66 21 -15.32 21 -16 21 C-16.05410687 19.22950311 -16.09284119 17.45853151 -16.125 15.6875 C-16.14820312 14.70136719 -16.17140625 13.71523437 -16.1953125 12.69921875 C-16 10 -16 10 -14 7 C-13.34 7 -12.68 7 -12 7 C-12 6.34 -12 5.68 -12 5 C-11.34 5 -10.68 5 -10 5 C-10 4.34 -10 3.68 -10 3 C-6.58168085 0.4606772 -4.24223102 -0.3636198 0 0 Z " transform="translate(113,230)" style="fill: rgb(80, 81, 83); --darkreader-inline-fill:#b5aea4;" data-darkreader-inline-fill=""/><path d="M0 0 C0.66 0 1.32 0 2 0 C2 0.66 2 1.32 2 2 C3.32 2 4.64 2 6 2 C6 2.66 6 3.32 6 4 C7.32 4 8.64 4 10 4 C10 4.66 10 5.32 10 6 C11.32 6 12.64 6 14 6 C14 6.66 14 7.32 14 8 C15.32 8 16.64 8 18 8 C18 8.66 18 9.32 18 10 C18.66 10.33 19.32 10.66 20 11 C18.68 12.32 17.36 13.64 16 15 C9.97992034 13.11872511 4.69509281 9.33075261 1 4.25 C0 2 0 2 0 0 Z " transform="translate(197,184)" style="fill: rgb(67, 68, 69); --darkreader-inline-fill:#bdb7af;" data-darkreader-inline-fill=""/><path d="M0 0 C0.66 0 1.32 0 2 0 C2 1.32 2 2.64 2 4 C1.34 4 0.68 4 0 4 C0 5.32 0 6.64 0 8 C-0.66 8 -1.32 8 -2 8 C-2.2165625 8.8971875 -2.2165625 8.8971875 -2.4375 9.8125 C-2.8872439 11.56150404 -3.42892341 13.28677023 -4 15 C-4.66 15 -5.32 15 -6 15 C-6 15.99 -6 16.98 -6 18 C-6.66 18 -7.32 18 -8 18 C-8 19.65 -8 21.3 -8 23 C-8.66 23 -9.32 23 -10 23 C-10.33 24.98 -10.66 26.96 -11 29 C-11.66 29 -12.32 29 -13 29 C-13.103125 29.556875 -13.20625 30.11375 -13.3125 30.6875 C-14.14011401 33.47129258 -15.37737752 35.59851873 -17 38 C-17.99 38.495 -17.99 38.495 -19 39 C-18.28269264 35.76834156 -17.18684926 32.81292078 -15.9375 29.75 C-15.39416016 28.41195313 -15.39416016 28.41195313 -14.83984375 27.046875 C-14.56269531 26.37140625 -14.28554688 25.6959375 -14 25 C-13.34 25 -12.68 25 -12 25 C-12 23.68 -12 22.36 -12 21 C-11.34 21 -10.68 21 -10 21 C-10 19.68 -10 18.36 -10 17 C-9.34 17 -8.68 17 -8 17 C-8 16.01 -8 15.02 -8 14 C-7.34 14 -6.68 14 -6 14 C-6 12.68 -6 11.36 -6 10 C-5.34 10 -4.68 10 -4 10 C-4 8.68 -4 7.36 -4 6 C-3.34 6 -2.68 6 -2 6 C-1.855625 5.38125 -1.71125 4.7625 -1.5625 4.125 C-1 2 -1 2 0 0 Z " transform="translate(278,364)" style="fill: rgb(64, 64, 65); --darkreader-inline-fill:#bfbab1;" data-darkreader-inline-fill=""/><path d="M0 0 C0.66 0.33 1.32 0.66 2 1 C2 2.32 2 3.64 2 5 C1.34 5 0.68 5 0 5 C0 5.99 0 6.98 0 8 C-0.66 8 -1.32 8 -2 8 C-2 8.99 -2 9.98 -2 11 C-2.66 11 -3.32 11 -4 11 C-4.103125 12.051875 -4.20625 13.10375 -4.3125 14.1875 C-4.97949332 17.88628113 -5.74990008 20.02986811 -8 23 C-8.66 23 -9.32 23 -10 23 C-10 23.99 -10 24.98 -10 26 C-10.66 26 -11.32 26 -12 26 C-12 27.32 -12 28.64 -12 30 C-12.99 30 -13.98 30 -15 30 C-15.33 30.99 -15.66 31.98 -16 33 C-18.97 33.495 -18.97 33.495 -22 34 C-21.34 32.68 -20.68 31.36 -20 30 C-18.68 30.33 -17.36 30.66 -16 31 C-16 30.01 -16 29.02 -16 28 C-15.34 28 -14.68 28 -14 28 C-13.7834375 27.071875 -13.7834375 27.071875 -13.5625 26.125 C-13 24 -13 24 -12 22 C-11.34 22 -10.68 22 -10 22 C-10 20.68 -10 19.36 -10 18 C-9.34 18 -8.68 18 -8 18 C-8 16.68 -8 15.36 -8 14 C-7.34 14 -6.68 14 -6 14 C-6 12.68 -6 11.36 -6 10 C-5.34 10 -4.68 10 -4 10 C-4 8.68 -4 7.36 -4 6 C-3.34 6 -2.68 6 -2 6 C-2 4.68 -2 3.36 -2 2 C-1.34 2 -0.68 2 0 2 C0 1.34 0 0.68 0 0 Z " transform="translate(228,120)" style="fill: rgb(67, 67, 71); --darkreader-inline-fill:#bcb7ae;" data-darkreader-inline-fill=""/><path d="M0 0 C0.99 0 1.98 0 3 0 C2.67 1.98 2.34 3.96 2 6 C1.01 6 0.02 6 -1 6 C-1 6.99 -1 7.98 -1 9 C-0.34 9 0.32 9 1 9 C1.32613281 9.59167969 1.65226563 10.18335938 1.98828125 10.79296875 C2.64376953 11.97826172 2.64376953 11.97826172 3.3125 13.1875 C3.99119141 14.42113281 3.99119141 14.42113281 4.68359375 15.6796875 C5.67775508 17.43200746 6.75745021 19.13617531 7.875 20.8125 C9 23 9 23 8.6875 25.3125 C8.460625 25.869375 8.23375 26.42625 8 27 C7.34 27 6.68 27 6 27 C4 24 4 24 4 21 C3.34 21 2.68 21 2 21 C2 19.68 2 18.36 2 17 C1.34 17 0.68 17 0 17 C0 16.01 0 15.02 0 14 C-0.66 14 -1.32 14 -2 14 C-2.33 11.69 -2.66 9.38 -3 7 C-3.66 7 -4.32 7 -5 7 C-5.33 6.01 -5.66 5.02 -6 4 C-4.02 3.34 -2.04 2.68 0 2 C0 1.34 0 0.68 0 0 Z " transform="translate(174,182)" style="fill: rgb(67, 67, 70); --darkreader-inline-fill:#bdb7ae;" data-darkreader-inline-fill=""/><path d="M0 0 C3.63 0 7.26 0 11 0 C11 0.66 11 1.32 11 2 C8.03 2 5.06 2 2 2 C2 2.66 2 3.32 2 4 C1.01 4 0.02 4 -1 4 C-1 4.66 -1 5.32 -1 6 C-1.66 6 -2.32 6 -3 6 C-3 7.32 -3 8.64 -3 10 C-3.66 10 -4.32 10 -5 10 C-5 10.99 -5 11.98 -5 13 C-5.66 13 -6.32 13 -7 13 C-7 13.99 -7 14.98 -7 16 C-7.66 16 -8.32 16 -9 16 C-9 17.32 -9 18.64 -9 20 C-9.66 20 -10.32 20 -11 20 C-11 20.99 -11 21.98 -11 23 C-11.99 22.67 -12.98 22.34 -14 22 C-12.68 18.7 -11.36 15.4 -10 12 C-9.34 12 -8.68 12 -8 12 C-8 10.68 -8 9.36 -8 8 C-7.34 8 -6.68 8 -6 8 C-5.67 6.68 -5.34 5.36 -5 4 C-4.34 4 -3.68 4 -3 4 C-3 3.34 -3 2.68 -3 2 C-2.01 2 -1.02 2 0 2 C0 1.34 0 0.68 0 0 Z " transform="translate(243,97)" style="fill: rgb(87, 87, 90); --darkreader-inline-fill:#b0a99f;" data-darkreader-inline-fill=""/><path d="M0 0 C0 0.66 0 1.32 0 2 C-0.66 2 -1.32 2 -2 2 C-2 2.66 -2 3.32 -2 4 C-3.78833008 5.42041016 -3.78833008 5.42041016 -6.26953125 7.0390625 C-7.15833984 7.61914062 -8.04714844 8.19921875 -8.96289062 8.796875 C-9.90326172 9.40015625 -10.84363281 10.0034375 -11.8125 10.625 C-12.74126953 11.23601562 -13.67003906 11.84703125 -14.62695312 12.4765625 C-15.51962891 13.0540625 -16.41230469 13.6315625 -17.33203125 14.2265625 C-18.15421143 14.75846191 -18.9763916 15.29036133 -19.82348633 15.83837891 C-22 17 -22 17 -25 17 C-25 17.66 -25 18.32 -25 19 C-26.32 19 -27.64 19 -29 19 C-29 18.34 -29 17.68 -29 17 C-28.01 17 -27.02 17 -26 17 C-26 16.34 -26 15.68 -26 15 C-25.01 15 -24.02 15 -23 15 C-23 14.34 -23 13.68 -23 13 C-22.01 13 -21.02 13 -20 13 C-20 12.34 -20 11.68 -20 11 C-17 9 -17 9 -14 9 C-14 8.34 -14 7.68 -14 7 C-13.34 7 -12.68 7 -12 7 C-12 6.34 -12 5.68 -12 5 C-10.68 5 -9.36 5 -8 5 C-8 4.34 -8 3.68 -8 3 C-7.34 3 -6.68 3 -6 3 C-6 2.34 -6 1.68 -6 1 C-3.92446352 0.4465236 -2.15634036 0 0 0 Z " transform="translate(399,255)" style="fill: rgb(67, 66, 73); --darkreader-inline-fill:#bcb6ae;" data-darkreader-inline-fill=""/><path d="M0 0 C0.99 0 1.98 0 3 0 C3 0.66 3 1.32 3 2 C4.32 2 5.64 2 7 2 C7 3.32 7 4.64 7 6 C6.34 6 5.68 6 5 6 C4.814375 7.423125 4.814375 7.423125 4.625 8.875 C3.95234946 13.62254802 2.97271759 18.30640153 2 23 C1.01 23.33 0.02 23.66 -1 24 C-1 25.32 -1 26.64 -1 28 C-1.66 28 -2.32 28 -3 28 C-3.17835515 23.45194365 -2.99785435 20.1205746 -1 16 C-0.34 16 0.32 16 1 16 C0.938125 14.9790625 0.938125 14.9790625 0.875 13.9375 C1.02549965 10.40075832 1.94375853 7.36676967 3 4 C2.34 4 1.68 4 1 4 C0.67 2.68 0.34 1.36 0 0 Z " transform="translate(143,282)" style="fill: rgb(63, 61, 64); --darkreader-inline-fill:#c1bbb3;" data-darkreader-inline-fill=""/><path d="M0 0 C0.66 0 1.32 0 2 0 C2 1.98 2 3.96 2 6 C1.34 6 0.68 6 0 6 C0 7.98 0 9.96 0 12 C-0.66 12 -1.32 12 -2 12 C-2 12.66 -2 13.32 -2 14 C-1.17242187 14.16822266 -1.17242187 14.16822266 -0.328125 14.33984375 C2.40065211 15.11360773 4.72772943 16.26817694 7.25 17.5625 C8.14203125 18.01753906 9.0340625 18.47257812 9.953125 18.94140625 C10.62859375 19.29074219 11.3040625 19.64007813 12 20 C11.67 20.66 11.34 21.32 11 22 C10.01 22 9.02 22 8 22 C8 21.34 8 20.68 8 20 C7.2575 20.020625 6.515 20.04125 5.75 20.0625 C3.29537721 20.00671312 1.33890739 19.6930096 -1 19 C-1 18.01 -1 17.02 -1 16 C-1.99 16 -2.98 16 -4 16 C-4.17835515 11.45194365 -3.99785435 8.1205746 -2 4 C-1.34 4 -0.68 4 0 4 C0 2.68 0 1.36 0 0 Z " transform="translate(356,198)" style="fill: rgb(68, 68, 72); --darkreader-inline-fill:#bcb6ad;" data-darkreader-inline-fill=""/><path d="M0 0 C1.32 1.32 2.64 2.64 4 4 C3.1875 6.4375 3.1875 6.4375 2 9 C1.01 9.33 0.02 9.66 -1 10 C-0.773125 10.5775 -0.54625 11.155 -0.3125 11.75 C0 14 0 14 -1.4375 16.25 C-1.953125 16.8275 -2.46875 17.405 -3 18 C-4.32 17.67 -5.64 17.34 -7 17 C-7 15.35 -7 13.7 -7 12 C-6.34 12 -5.68 12 -5 12 C-5 10.68 -5 9.36 -5 8 C-4.34 8 -3.68 8 -3 8 C-2.87625 7.4225 -2.7525 6.845 -2.625 6.25 C-1.99351176 3.97664233 -1.11141809 2.0746471 0 0 Z " transform="translate(313,214)" style="fill: rgb(49, 48, 50); --darkreader-inline-fill:#c9c4bd;" data-darkreader-inline-fill=""/><path d="M0 0 C0.99 0.33 1.98 0.66 3 1 C3 1.66 3 2.32 3 3 C3.66 3 4.32 3 5 3 C5 3.66 5 4.32 5 5 C5.66 5 6.32 5 7 5 C7 5.66 7 6.32 7 7 C7.66 7 8.32 7 9 7 C11 10 11 10 11 13 C11.66 13 12.32 13 13 13 C13 13.66 13 14.32 13 15 C13.66 15 14.32 15 15 15 C15 16.32 15 17.64 15 19 C15.66 19 16.32 19 17 19 C17 20.32 17 21.64 17 23 C13.17398693 21.54875366 11.77670876 19.64225296 10 16 C10 15.01 10 14.02 10 13 C9.01 12.67 8.02 12.34 7 12 C7 11.01 7 10.02 7 9 C5.68 8.67 4.36 8.34 3 8 C3 7.34 3 6.68 3 6 C2.34 6 1.68 6 1 6 C1 5.01 1 4.02 1 3 C0.34 3 -0.32 3 -1 3 C-0.67 2.01 -0.34 1.02 0 0 Z " transform="translate(279,207)" style="fill: rgb(62, 62, 63); --darkreader-inline-fill:#c1bbb3;" data-darkreader-inline-fill=""/><path d="M0 0 C0.66 0.33 1.32 0.66 2 1 C-0.27791066 5.93547309 -3.16694273 10.16694273 -7 14 C-7.33 14.99 -7.66 15.98 -8 17 C-8.66 17 -9.32 17 -10 17 C-10 16.34 -10 15.68 -10 15 C-11.65 15.33 -13.3 15.66 -15 16 C-15 15.34 -15 14.68 -15 14 C-14.34 14 -13.68 14 -13 14 C-13 13.34 -13 12.68 -13 12 C-12.34 12 -11.68 12 -11 12 C-11 11.34 -11 10.68 -11 10 C-10.34 10 -9.68 10 -9 10 C-9 9.34 -9 8.68 -9 8 C-8.34 8 -7.68 8 -7 8 C-7 7.34 -7 6.68 -7 6 C-6.34 6 -5.68 6 -5 6 C-5 5.34 -5 4.68 -5 4 C-3.37373596 2.61767557 -1.7074998 1.28062485 0 0 Z " transform="translate(116,122)" style="fill: rgb(56, 56, 57); --darkreader-inline-fill:#c4bfb8;" data-darkreader-inline-fill=""/><path d="M0 0 C0.66 0 1.32 0 2 0 C2.04241723 2.33294775 2.04092937 4.66702567 2 7 C1.67 7.33 1.34 7.66 1 8 C0.76636119 9.84891946 0.58696365 11.70488031 0.4375 13.5625 C0.35371094 14.57441406 0.26992187 15.58632812 0.18359375 16.62890625 C0.12300781 17.41136719 0.06242187 18.19382813 0 19 C-0.66 19 -1.32 19 -2 19 C-2 23.95 -2 28.9 -2 34 C-2.66 34 -3.32 34 -4 34 C-5.29205445 29.15479581 -5.51999304 23.97959436 -5 19 C-4.34 18.34 -3.68 17.68 -3 17 C-2.53837573 14.56747339 -2.53837573 14.56747339 -2.375 11.875 C-2.30023438 10.96492187 -2.22546875 10.05484375 -2.1484375 9.1171875 C-2.09945312 8.41851562 -2.05046875 7.71984375 -2 7 C-1.34 7 -0.68 7 0 7 C0 4.69 0 2.38 0 0 Z " transform="translate(71,206)" style="fill: rgb(63, 63, 65); --darkreader-inline-fill:#c0bab2;" data-darkreader-inline-fill=""/><path d="M0 0 C1.32 0 2.64 0 4 0 C4 0.66 4 1.32 4 2 C5.32 2.33 6.64 2.66 8 3 C8 4.98 8 6.96 8 9 C7.34 9 6.68 9 6 9 C5.62875 10.299375 5.62875 10.299375 5.25 11.625 C3.74826095 15.67969543 2.0215338 19.9892331 -2 22 C-3 19 -3 19 -2.22265625 16.95703125 C-1.83980469 16.24933594 -1.45695312 15.54164063 -1.0625 14.8125 C-0.68222656 14.09707031 -0.30195313 13.38164062 0.08984375 12.64453125 C0.54037109 11.83048828 0.54037109 11.83048828 1 11 C1.66 11 2.32 11 3 11 C3.33 8.69 3.66 6.38 4 4 C3.01 4 2.02 4 1 4 C0.67 2.68 0.34 1.36 0 0 Z " transform="translate(322,182)" style="fill: rgb(71, 71, 73); --darkreader-inline-fill:#bbb5ac;" data-darkreader-inline-fill=""/><path d="M0 0 C0.66 0 1.32 0 2 0 C3.20272819 2.40545638 3.10071472 3.94996953 3.0625 6.625 C3.05347656 7.44226563 3.04445312 8.25953125 3.03515625 9.1015625 C3.02355469 9.72804687 3.01195312 10.35453125 3 11 C3.66 11 4.32 11 5 11 C5.33 14.63 5.66 18.26 6 22 C6.66 22 7.32 22 8 22 C7.67 24.31 7.34 26.62 7 29 C6.67 29 6.34 29 6 29 C6 27.02 6 25.04 6 23 C5.34 23 4.68 23 4 23 C2.39644899 19.49223216 1.77963136 16.85645121 2 13 C1.34 13 0.68 13 0 13 C0 8.71 0 4.42 0 0 Z " transform="translate(126,148)" style="fill: rgb(76, 74, 78); --darkreader-inline-fill:#b8b2a9;" data-darkreader-inline-fill=""/><path d="M0 0 C0 0.66 0 1.32 0 2 C-2.31 2 -4.62 2 -7 2 C-7 2.66 -7 3.32 -7 4 C-8.65 4 -10.3 4 -12 4 C-12 4.66 -12 5.32 -12 6 C-13.65 6 -15.3 6 -17 6 C-17 6.66 -17 7.32 -17 8 C-18.32 8 -19.64 8 -21 8 C-21 8.66 -21 9.32 -21 10 C-21.99 10 -22.98 10 -24 10 C-24 8.02 -24 6.04 -24 4 C-22.989375 3.896875 -21.97875 3.79375 -20.9375 3.6875 C-17.00118963 3.17921116 -17.00118963 3.17921116 -13.6875 1.4375 C-8.99017785 -0.39365948 -4.97450313 -0.27024464 0 0 Z " transform="translate(312,146)" style="fill: rgb(76, 76, 80); --darkreader-inline-fill:#b7b0a7;" data-darkreader-inline-fill=""/><path d="M0 0 C0.66 1.32 1.32 2.64 2 4 C0.68 4 -0.64 4 -2 4 C-2 4.66 -2 5.32 -2 6 C-2.99 6 -3.98 6 -5 6 C-5 6.66 -5 7.32 -5 8 C-6.32 8 -7.64 8 -9 8 C-9 8.66 -9 9.32 -9 10 C-10.32 10 -11.64 10 -13 10 C-13 10.66 -13 11.32 -13 12 C-14.32 12 -15.64 12 -17 12 C-17 12.66 -17 13.32 -17 14 C-18.32 14 -19.64 14 -21 14 C-21 14.66 -21 15.32 -21 16 C-22.32 15.67 -23.64 15.34 -25 15 C-24.34 14.67 -23.68 14.34 -23 14 C-23 13.34 -23 12.68 -23 12 C-21.35 12 -19.7 12 -18 12 C-18 11.34 -18 10.68 -18 10 C-16.68 10 -15.36 10 -14 10 C-14 9.34 -14 8.68 -14 8 C-12.2335343 6.9923048 -10.46166177 5.99408286 -8.6875 5 C-7.20830078 4.1646875 -7.20830078 4.1646875 -5.69921875 3.3125 C-3 2 -3 2 0 2 C0 1.34 0 0.68 0 0 Z " transform="translate(138,214)" style="fill: rgb(73, 73, 75); --darkreader-inline-fill:#b9b3aa;" data-darkreader-inline-fill=""/><path d="M0 0 C-0.33 1.98 -0.66 3.96 -1 6 C-1.66 6 -2.32 6 -3 6 C-3 5.34 -3 4.68 -3 4 C-3.66 4 -4.32 4 -5 4 C-5 4.66 -5 5.32 -5 6 C-9.0188515 7.81242323 -12.61110675 9.33501617 -17 10 C-17 10.66 -17 11.32 -17 12 C-17.99 12 -18.98 12 -20 12 C-20.33 12.99 -20.66 13.98 -21 15 C-21.99 14.01 -22.98 13.02 -24 12 C-19.3038802 8.32477581 -14.95121721 5.99208676 -9.33203125 3.9921875 C-6.92733024 3.08306028 -6.92733024 3.08306028 -4.88671875 1.3828125 C-3 0 -3 0 0 0 Z " transform="translate(310,178)" style="fill: rgb(49, 49, 52); --darkreader-inline-fill:#c8c3bc;" data-darkreader-inline-fill=""/><path d="M0 0 C1.134375 0.020625 2.26875 0.04125 3.4375 0.0625 C3.9325 1.0525 3.9325 1.0525 4.4375 2.0625 C0.34975293 2.83184927 -3.5025062 3.18494634 -7.65966797 3.17602539 C-8.84043915 3.17594986 -10.02121033 3.17587433 -11.23776245 3.17579651 C-12.49734772 3.17063522 -13.75693298 3.16547394 -15.0546875 3.16015625 C-16.35576447 3.1587413 -17.65684143 3.15732635 -18.99734497 3.15586853 C-22.43979853 3.15206844 -25.88220925 3.14225983 -29.324646 3.13116455 C-32.84402894 3.12089625 -36.36341887 3.11635934 -39.8828125 3.11132812 C-46.77605916 3.10063509 -53.66927752 3.08358911 -60.5625 3.0625 C-60.5625 2.7325 -60.5625 2.4025 -60.5625 2.0625 C-59.86314835 2.05219254 -59.16379669 2.04188507 -58.44325256 2.03126526 C-51.86536337 1.93344968 -45.2875658 1.83095843 -38.70983219 1.72316074 C-35.32782878 1.66790198 -31.94581676 1.61447744 -28.5637207 1.56518555 C-24.67910573 1.50849054 -20.79464122 1.44392415 -16.91015625 1.37890625 C-15.08050072 1.35383751 -15.08050072 1.35383751 -13.21388245 1.32826233 C-12.09279587 1.30831711 -10.97170929 1.28837189 -9.81665039 1.26782227 C-8.82403702 1.25227798 -7.83142365 1.2367337 -6.80873108 1.22071838 C-3.53846292 0.99036962 -3.78771832 0.0664512 0 0 Z " transform="translate(191.5625,145.9375)" style="fill: rgb(64, 63, 65); --darkreader-inline-fill:#c0bab2;" data-darkreader-inline-fill=""/><path d="M0 0 C-0.33 0.99 -0.66 1.98 -1 3 C-19.81 2.67 -38.62 2.34 -58 2 C-58 1.67 -58 1.34 -58 1 C-50.54355102 0.85691973 -43.08708818 0.71457981 -35.63061523 0.57275391 C-33.09415365 0.52442182 -30.55769528 0.47592042 -28.02124023 0.42724609 C-24.37484559 0.35730155 -20.72843978 0.28796642 -17.08203125 0.21875 C-15.38177544 0.18593933 -15.38177544 0.18593933 -13.64717102 0.15246582 C-12.58644882 0.13244507 -11.52572662 0.11242432 -10.43286133 0.09179688 C-9.50242508 0.07403198 -8.57198883 0.05626709 -7.61335754 0.03796387 C-5.07513621 0.00109149 -2.53844694 -0.00674113 0 0 Z " transform="translate(195,148)" style="fill: rgb(48, 47, 50); --darkreader-inline-fill:#c9c5be;" data-darkreader-inline-fill=""/><path d="M0 0 C3.35447625 1.17859976 5.83924737 2.1189965 8 5 C9.79198259 9.12155995 10.24853846 11.68686714 9 16 C8.814375 16.763125 8.62875 17.52625 8.4375 18.3125 C8.293125 18.869375 8.14875 19.42625 8 20 C7.34 20 6.68 20 6 20 C6 20.66 6 21.32 6 22 C5.34 22 4.68 22 4 22 C4 21.01 4 20.02 4 19 C4.66 19 5.32 19 6 19 C6 15.04 6 11.08 6 7 C5.34 7 4.68 7 4 7 C4 6.34 4 5.68 4 5 C3.34 5 2.68 5 2 5 C2 4.34 2 3.68 2 3 C1.34 3 0.68 3 0 3 C0 2.01 0 1.02 0 0 Z " transform="translate(395,233)" style="fill: rgb(84, 84, 85); --darkreader-inline-fill:#b3aca2;" data-darkreader-inline-fill=""/><path d="M0 0 C1.98440482 0.75724648 3.96243005 1.53122962 5.9375 2.3125 C7.03964844 2.74175781 8.14179688 3.17101562 9.27734375 3.61328125 C12 5 12 5 13 8 C10.9375 9.1875 10.9375 9.1875 8 10 C4.3125 9 4.3125 9 1 7 C-0.4375 3.8125 -0.4375 3.8125 -1 1 C-0.67 0.67 -0.34 0.34 0 0 Z " transform="translate(224,293)" style="fill: rgb(43, 43, 48); --darkreader-inline-fill:#cbc7c0;" data-darkreader-inline-fill=""/><path d="M0 0 C0.66 0 1.32 0 2 0 C1.67 1.32 1.34 2.64 1 4 C-0.32 4 -1.64 4 -3 4 C-3 4.66 -3 5.32 -3 6 C-4.7664657 7.0076952 -6.53833823 8.00591714 -8.3125 9 C-9.79169922 9.8353125 -9.79169922 9.8353125 -11.30078125 10.6875 C-14 12 -14 12 -17 12 C-17 12.66 -17 13.32 -17 14 C-18.32 14 -19.64 14 -21 14 C-20.34 12.68 -19.68 11.36 -19 10 C-18.01 10 -17.02 10 -16 10 C-15.67 9.34 -15.34 8.68 -15 8 C-14.01 8 -13.02 8 -12 8 C-12 7.34 -12 6.68 -12 6 C-7.9811485 4.18757677 -4.38889325 2.66498383 0 2 C0 1.34 0 0.68 0 0 Z " transform="translate(305,182)" style="fill: rgb(63, 62, 65); --darkreader-inline-fill:#c0bab2;" data-darkreader-inline-fill=""/><path d="M0 0 C0.99 0.66 1.98 1.32 3 2 C2.7834375 3.2684375 2.7834375 3.2684375 2.5625 4.5625 C2.16854107 6.97002679 1.84062276 9.38885881 1.5625 11.8125 C1.376875 12.864375 1.19125 13.91625 1 15 C0.01 15.495 0.01 15.495 -1 16 C-1.99 15.34 -2.98 14.68 -4 14 C-4.1875 10.875 -4.1875 10.875 -4 8 C-3.34 8 -2.68 8 -2 8 C-2 6.68 -2 5.36 -2 4 C-1.34 4 -0.68 4 0 4 C0 2.68 0 1.36 0 0 Z " transform="translate(310,263)" style="fill: rgb(35, 35, 37); --darkreader-inline-fill:#d1cdc7;" data-darkreader-inline-fill=""/><path d="M0 0 C0 0.66 0 1.32 0 2 C4.95 2 9.9 2 15 2 C14.67 2.66 14.34 3.32 14 4 C6.74 4 -0.52 4 -8 4 C-8 4.66 -8 5.32 -8 6 C-8.99 6 -9.98 6 -11 6 C-11 4.68 -11 3.36 -11 2 C-8.94921875 1.77213542 -6.8984375 1.54427083 -4.84765625 1.31640625 C-2.53381977 0.92016787 -2.40516179 0 0 0 Z " transform="translate(139,144)" style="fill: rgb(90, 90, 93); --darkreader-inline-fill:#aea79d;" data-darkreader-inline-fill=""/><path d="M0 0 C-0.66 1.65 -1.32 3.3 -2 5 C-3.2375 5.12375 -4.475 5.2475 -5.75 5.375 C-8.92070736 5.76085328 -11.19204853 6.44002696 -14 8 C-14.99 8 -15.98 8 -17 8 C-16.8125 6.125 -16.8125 6.125 -16 4 C-11.3705411 1.4748406 -5.22956365 0 0 0 Z " transform="translate(245,198)" style="fill: rgb(65, 64, 66); --darkreader-inline-fill:#bfb9b1;" data-darkreader-inline-fill=""/><path d="M0 0 C0.33 1.32 0.66 2.64 1 4 C1.66 4 2.32 4 3 4 C3.66 5.98 4.32 7.96 5 10 C5.66 10 6.32 10 7 10 C7 10.66 7 11.32 7 12 C7.66 12 8.32 12 9 12 C9 12.66 9 13.32 9 14 C10.32 14 11.64 14 13 14 C13 14.66 13 15.32 13 16 C13.66 16.33 14.32 16.66 15 17 C7.78728606 16.63325183 7.78728606 16.63325183 4.125 13.6875 C1.42409436 10.27164875 0 8.38316268 0 4 C-0.66 3.67 -1.32 3.34 -2 3 C-1.34 2.01 -0.68 1.02 0 0 Z " transform="translate(235,389)" style="fill: rgb(71, 65, 72); --darkreader-inline-fill:#bdb7ae;" data-darkreader-inline-fill=""/><path d="M0 0 C0 1.65 0 3.3 0 5 C1.32 5.66 2.64 6.32 4 7 C4 8.98 4 10.96 4 13 C2.35 13 0.7 13 -1 13 C-2.40692958 9.21887676 -3.45030866 6.05277796 -3 2 C-1 0 -1 0 0 0 Z " transform="translate(73,296)" style="fill: rgb(53, 52, 55); --darkreader-inline-fill:#c6c1ba;" data-darkreader-inline-fill=""/><path d="M0 0 C0.66 0 1.32 0 2 0 C2.33 1.32 2.66 2.64 3 4 C2.34 4 1.68 4 1 4 C0.96474868 5.88658874 0.96474868 5.88658874 2 8 C4.23932036 9.52956035 6.60427563 10.71657623 9 12 C9.33 12.66 9.66 13.32 10 14 C7.36 13.67 4.72 13.34 2 13 C2 12.34 2 11.68 2 11 C0.68 11 -0.64 11 -2 11 C-2.33 9.68 -2.66 8.36 -3 7 C-2.34 6.67 -1.68 6.34 -1 6 C-0.34227572 2.97065509 -0.34227572 2.97065509 0 0 Z " transform="translate(172,309)" style="fill: rgb(69, 69, 71); --darkreader-inline-fill:#bcb6ad;" data-darkreader-inline-fill=""/><path d="M0 0 C0.99 0.33 1.98 0.66 3 1 C2.67 2.65 2.34 4.3 2 6 C1.34 6 0.68 6 0 6 C0.061875 7.0828125 0.061875 7.0828125 0.125 8.1875 C-0.00921305 11.20729369 -0.75170619 13.26935729 -2 16 C-2.66 16 -3.32 16 -4 16 C-4 17.32 -4 18.64 -4 20 C-4.66 20 -5.32 20 -6 20 C-6.24042276 15.91281305 -5.42258812 12.82320557 -4 9 C-3.34 9 -2.68 9 -2 9 C-2 7.35 -2 5.7 -2 4 C-1.34 4 -0.68 4 0 4 C0 2.68 0 1.36 0 0 Z " transform="translate(364,178)" style="fill: rgb(73, 73, 74); --darkreader-inline-fill:#bab4ab;" data-darkreader-inline-fill=""/><path d="M0 0 C0.99 0.33 1.98 0.66 3 1 C3 1.99 3 2.98 3 4 C3.5775 4.2475 4.155 4.495 4.75 4.75 C7.29879381 6.16599656 8.94723215 7.94723215 11 10 C11.99 10.33 12.98 10.66 14 11 C13.67 11.99 13.34 12.98 13 14 C10.33333333 12.66666667 7.66666667 11.33333333 5 10 C5 9.34 5 8.68 5 8 C4.34 8 3.68 8 3 8 C3 7.34 3 6.68 3 6 C2.34 6 1.68 6 1 6 C1 4.68 1 3.36 1 2 C0.34 1.67 -0.32 1.34 -1 1 C-0.67 0.67 -0.34 0.34 0 0 Z " transform="translate(98,249)" style="fill: rgb(72, 72, 75); --darkreader-inline-fill:#bab4ab;" data-darkreader-inline-fill=""/><path d="M0 0 C0.99 0 1.98 0 3 0 C3 1.32 3 2.64 3 4 C2.34 4 1.68 4 1 4 C0.71125 5.093125 0.4225 6.18625 0.125 7.3125 C-1 11 -1 11 -3 14 C-3.66 14 -4.32 14 -5 14 C-5 14.99 -5 15.98 -5 17 C-5.66 17 -6.32 17 -7 17 C-6.32755582 13.18948298 -5.43913922 9.59784804 -4 6 C-3.01 5.34 -2.02 4.68 -1 4 C-0.27617533 1.94074861 -0.27617533 1.94074861 0 0 Z " transform="translate(189,273)" style="fill: rgb(44, 44, 46); --darkreader-inline-fill:#ccc7c0;" data-darkreader-inline-fill=""/><path d="M0 0 C2.37590142 3.70416126 2.20500286 6.92984573 2.125 11.25 C2.10695312 12.51328125 2.08890625 13.7765625 2.0703125 15.078125 C2.03550781 16.52445312 2.03550781 16.52445312 2 18 C1.01 18.33 0.02 18.66 -1 19 C-1.02683987 16.02077407 -1.04676037 13.04178705 -1.0625 10.0625 C-1.07087891 9.21236328 -1.07925781 8.36222656 -1.08789062 7.48632812 C-1.09111328 6.67744141 -1.09433594 5.86855469 -1.09765625 5.03515625 C-1.10289307 4.2862915 -1.10812988 3.53742676 -1.11352539 2.76586914 C-1 1 -1 1 0 0 Z " transform="translate(186,242)" style="fill: rgb(48, 47, 50); --darkreader-inline-fill:#c9c5be;" data-darkreader-inline-fill=""/><path d="M0 0 C0.66 0 1.32 0 2 0 C1.67 3.63 1.34 7.26 1 11 C0.01 11.33 -0.98 11.66 -2 12 C-2.73323796 14.01508358 -2.73323796 14.01508358 -3 16 C-3.66 15.67 -4.32 15.34 -5 15 C-4.54705135 13.24859857 -4.08741252 11.49892656 -3.625 9.75 C-3.36976563 8.77546875 -3.11453125 7.8009375 -2.8515625 6.796875 C-2.10401491 4.34162697 -1.22876183 2.24382595 0 0 Z " transform="translate(136,316)" style="fill: rgb(75, 75, 78); --darkreader-inline-fill:#b8b2a8;" data-darkreader-inline-fill=""/><path d="M0 0 C0.66 0 1.32 0 2 0 C2 0.66 2 1.32 2 2 C2.66 2 3.32 2 4 2 C4 2.66 4 3.32 4 4 C4.66 4 5.32 4 6 4 C6.33 5.65 6.66 7.3 7 9 C5.02 9.99 5.02 9.99 3 11 C3 10.34 3 9.68 3 9 C2.34 9 1.68 9 1 9 C0.45627049 5.94152152 0 3.11227195 0 0 Z " transform="translate(211,281)" style="fill: rgb(48, 48, 50); --darkreader-inline-fill:#c9c4bd;" data-darkreader-inline-fill=""/><path d="M0 0 C0 0.66 0 1.32 0 2 C1.32 2 2.64 2 4 2 C4 2.66 4 3.32 4 4 C4.556875 4.12375 5.11375 4.2475 5.6875 4.375 C8.2618003 5.07075684 10.59880886 5.83185296 13 7 C13.33 7.99 13.66 8.98 14 10 C11.61435923 9.42415568 9.33317216 8.77772405 7 8 C7 7.34 7 6.68 7 6 C5.68 6 4.36 6 3 6 C3 5.34 3 4.68 3 4 C1.68 4 0.36 4 -1 4 C-1 3.34 -1 2.68 -1 2 C-2.32 1.67 -3.64 1.34 -5 1 C-4 0 -4 0 0 0 Z " transform="translate(380,224)" style="fill: rgb(77, 77, 78); --darkreader-inline-fill:#b7b1a7;" data-darkreader-inline-fill=""/><path d="M0 0 C0.84755859 0.04833984 1.69511719 0.09667969 2.56835938 0.14648438 C3.44943359 0.20255859 4.33050781 0.25863281 5.23828125 0.31640625 C6.13095703 0.36861328 7.02363281 0.42082031 7.94335938 0.47460938 C10.14619685 0.60418805 12.34856998 0.73914871 14.55078125 0.87890625 C14.22078125 1.53890625 13.89078125 2.19890625 13.55078125 2.87890625 C6.62078125 2.87890625 -0.30921875 2.87890625 -7.44921875 2.87890625 C-7.44921875 2.21890625 -7.44921875 1.55890625 -7.44921875 0.87890625 C-4.52252184 -0.09665939 -3.00860554 -0.18172785 0 0 Z " transform="translate(318.44921875,351.12109375)" style="fill: rgb(43, 43, 46); --darkreader-inline-fill:#ccc7c1;" data-darkreader-inline-fill=""/><path d="M0 0 C-0.33 2.31 -0.66 4.62 -1 7 C-1.66 7 -2.32 7 -3 7 C-3.103125 7.556875 -3.20625 8.11375 -3.3125 8.6875 C-4.14011401 11.47129258 -5.37737752 13.59851873 -7 16 C-7.66 16.33 -8.32 16.66 -9 17 C-8.28710435 13.86471405 -7.2907467 10.93319791 -6.125 7.9375 C-5.63386719 6.65166016 -5.63386719 6.65166016 -5.1328125 5.33984375 C-2.5475793 0 -2.5475793 0 0 0 Z " transform="translate(268,386)" style="fill: rgb(72, 72, 73); --darkreader-inline-fill:#bab4ab;" data-darkreader-inline-fill=""/><path d="M0 0 C0 0.99 0 1.98 0 3 C0.66 3 1.32 3 2 3 C2 4.32 2 5.64 2 7 C3.32 7.66 4.64 8.32 6 9 C5.67 10.65 5.34 12.3 5 14 C4.67 13.34 4.34 12.68 4 12 C3.34 12 2.68 12 2 12 C2 10.68 2 9.36 2 8 C1.34 8 0.68 8 0 8 C-0.99 5.69 -1.98 3.38 -3 1 C-2 0 -2 0 0 0 Z " transform="translate(224,368)" style="fill: rgb(69, 69, 70); --darkreader-inline-fill:#bcb6ae;" data-darkreader-inline-fill=""/><path d="M0 0 C0.66 0 1.32 0 2 0 C2 1.98 2 3.96 2 6 C1.34 6 0.68 6 0 6 C0.33 8.64 0.66 11.28 1 14 C1.99 14.33 2.98 14.66 4 15 C4 15.66 4 16.32 4 17 C2.68 17 1.36 17 0 17 C0 16.34 0 15.68 0 15 C-0.66 15 -1.32 15 -2 15 C-2 11.37 -2 7.74 -2 4 C-1.34 4 -0.68 4 0 4 C0 2.68 0 1.36 0 0 Z " transform="translate(128,337)" style="fill: rgb(75, 75, 77); --darkreader-inline-fill:#b8b2a9;" data-darkreader-inline-fill=""/><path d="M0 0 C2 1 2 1 3 2 C3.04063832 3.66617115 3.042721 5.33388095 3 7 C1.68 7 0.36 7 -1 7 C-1.66 8.65 -2.32 10.3 -3 12 C-3.66 12 -4.32 12 -5 12 C-4.52389341 7.00088076 -2.96837781 4.02167317 0 0 Z " transform="translate(291,273)" style="fill: rgb(43, 43, 47); --darkreader-inline-fill:#ccc7c0;" data-darkreader-inline-fill=""/><path d="M0 0 C0.66 0 1.32 0 2 0 C2.42501659 4.67518253 0.85735989 7.76521945 -1 12 C-1.39764263 13.98821313 -1.75455166 15.98732362 -2 18 C-2.66 17.34 -3.32 16.68 -4 16 C-3.9765625 13.3984375 -3.9765625 13.3984375 -3.625 10.375 C-3.51414062 9.37210938 -3.40328125 8.36921875 -3.2890625 7.3359375 C-3.19367188 6.56507813 -3.09828125 5.79421875 -3 5 C-2.01 5 -1.02 5 0 5 C0 3.35 0 1.7 0 0 Z " transform="translate(77,188)" style="fill: rgb(57, 57, 58); --darkreader-inline-fill:#c4bfb7;" data-darkreader-inline-fill=""/><path d="M0 0 C0.99 0 1.98 0 3 0 C3 0.66 3 1.32 3 2 C4.32 2 5.64 2 7 2 C7 2.66 7 3.32 7 4 C7.66 4 8.32 4 9 4 C8.34 5.32 7.68 6.64 7 8 C6.34 7.34 5.68 6.68 5 6 C1.41656024 5.83322718 1.41656024 5.83322718 -2 6 C-2 4.68 -2 3.36 -2 2 C-1.34 2 -0.68 2 0 2 C0 1.34 0 0.68 0 0 Z " transform="translate(182,176)" style="fill: rgb(74, 74, 77); --darkreader-inline-fill:#b8b2a9;" data-darkreader-inline-fill=""/><path d="M0 0 C0.66 0 1.32 0 2 0 C2 1.65 2 3.3 2 5 C2.66 5 3.32 5 4 5 C4 6.98 4 8.96 4 11 C2.02 11.33 0.04 11.66 -2 12 C-2 10.68 -2 9.36 -2 8 C-1.34 8 -0.68 8 0 8 C0 5.36 0 2.72 0 0 Z " transform="translate(144,204)" style="fill: rgb(78, 78, 80); --darkreader-inline-fill:#b6b0a6;" data-darkreader-inline-fill=""/><path d="M0 0 C0.99 0.33 1.98 0.66 3 1 C3 1.66 3 2.32 3 3 C3.66 3 4.32 3 5 3 C5 3.66 5 4.32 5 5 C5.66 5 6.32 5 7 5 C7 5.66 7 6.32 7 7 C7.66 7 8.32 7 9 7 C9 8.32 9 9.64 9 11 C8.34 11 7.68 11 7 11 C7 10.34 7 9.68 7 9 C5.68 8.67 4.36 8.34 3 8 C3 7.34 3 6.68 3 6 C2.34 6 1.68 6 1 6 C1 5.01 1 4.02 1 3 C0.34 3 -0.32 3 -1 3 C-0.67 2.01 -0.34 1.02 0 0 Z " transform="translate(279,207)" style="fill: rgb(74, 74, 76); --darkreader-inline-fill:#b9b3a9;" data-darkreader-inline-fill=""/><path d="M0 0 C5.36716665 -0.83861979 8.79627239 2.07929595 13 5 C12.67 5.99 12.34 6.98 12 8 C12.66 8 13.32 8 14 8 C13.67 8.66 13.34 9.32 13 10 C12.54625 9.505 12.0925 9.01 11.625 8.5 C10.12364481 6.77390663 10.12364481 6.77390663 8 7 C8 6.01 8 5.02 8 4 C7.236875 3.855625 6.47375 3.71125 5.6875 3.5625 C3 3 3 3 0 2 C0 1.34 0 0.68 0 0 Z " transform="translate(266,202)" style="fill: rgb(62, 62, 64); --darkreader-inline-fill:#c0bbb3;" data-darkreader-inline-fill=""/><path d="M0 0 C0.99 0 1.98 0 3 0 C3.19622241 4.21878192 2.80230168 7.17010894 1 11 C0.34 11 -0.32 11 -1 11 C-1 11.99 -1 12.98 -1 14 C-1.66 14 -2.32 14 -3 14 C-3 12.68 -3 11.36 -3 10 C-2.34 10 -1.68 10 -1 10 C-0.67 6.7 -0.34 3.4 0 0 Z " transform="translate(369,162)" style="fill: rgb(74, 74, 75); --darkreader-inline-fill:#b9b3aa;" data-darkreader-inline-fill=""/><path d="M0 0 C-0.99 2.31 -1.98 4.62 -3 7 C-3.99 7 -4.98 7 -6 7 C-6.33 8.32 -6.66 9.64 -7 11 C-7.33 11 -7.66 11 -8 11 C-7.10164835 3.21428571 -7.10164835 3.21428571 -5 0 C-3 -1 -3 -1 0 0 Z " transform="translate(180,298)" style="fill: rgb(48, 48, 50); --darkreader-inline-fill:#c9c4bd;" data-darkreader-inline-fill=""/><path d="M0 0 C1.65 0.33 3.3 0.66 5 1 C5.33 1.99 5.66 2.98 6 4 C6.66 4 7.32 4 8 4 C7.67 4.99 7.34 5.98 7 7 C4.36 6.34 1.72 5.68 -1 5 C-0.67 3.35 -0.34 1.7 0 0 Z " transform="translate(314,176)" style="fill: rgb(88, 87, 89); --darkreader-inline-fill:#b0aa9f;" data-darkreader-inline-fill=""/><path d="M0 0 C1.32 0 2.64 0 4 0 C4 1.98 4 3.96 4 6 C2.68 5.67 1.36 5.34 0 5 C-0.33 6.65 -0.66 8.3 -1 10 C-1.66 9.67 -2.32 9.34 -3 9 C-2.44271087 5.65626525 -1.64826111 2.96687001 0 0 Z " transform="translate(190,228)" style="fill: rgb(46, 46, 51); --darkreader-inline-fill:#c9c5be;" data-darkreader-inline-fill=""/><path d="M0 0 C0.66 0.33 1.32 0.66 2 1 C0.50163895 4.11198065 -1.19933758 7.0534615 -3 10 C-3.66 9.34 -4.32 8.68 -5 8 C-7.10820797 8.3185177 -7.10820797 8.3185177 -9 9 C-8.34 8.67 -7.68 8.34 -7 8 C-7 7.34 -7 6.68 -7 6 C-6.34 6 -5.68 6 -5 6 C-5 5.34 -5 4.68 -5 4 C-3.37373596 2.61767557 -1.7074998 1.28062485 0 0 Z " transform="translate(116,122)" style="fill: rgb(68, 68, 68); --darkreader-inline-fill:#bdb7af;" data-darkreader-inline-fill=""/><path d="M0 0 C0.66 1.32 1.32 2.64 2 4 C1.34 4 0.68 4 0 4 C-0.33 4.99 -0.66 5.98 -1 7 C-1.66 7 -2.32 7 -3 7 C-2.67 8.32 -2.34 9.64 -2 11 C-3.32 10.67 -4.64 10.34 -6 10 C-4.79157144 5.56909529 -3.48331435 3.01887244 0 0 Z " transform="translate(212,207)" style="fill: rgb(76, 74, 76); --darkreader-inline-fill:#b9b3a9;" data-darkreader-inline-fill=""/><path d="M0 0 C0.99 0 1.98 0 3 0 C3 1.32 3 2.64 3 4 C3.99 4 4.98 4 6 4 C5.67 4.99 5.34 5.98 5 7 C4.05125 6.814375 3.1025 6.62875 2.125 6.4375 C-0.89868793 5.71313368 -0.89868793 5.71313368 -3 7 C-2.67 5.35 -2.34 3.7 -2 2 C-1.34 2 -0.68 2 0 2 C0 1.34 0 0.68 0 0 Z " transform="translate(218,306)" style="fill: rgb(43, 44, 45); --darkreader-inline-fill:#ccc8c1;" data-darkreader-inline-fill=""/><path d="M0 0 C1.32 0 2.64 0 4 0 C3.41196203 3.02419525 2.77321882 6.01758453 2 9 C1.34 9 0.68 9 0 9 C0 9.66 0 10.32 0 11 C-0.66 11 -1.32 11 -2 11 C-2 10.01 -2 9.02 -2 8 C-1.34 8 -0.68 8 0 8 C0 5.36 0 2.72 0 0 Z " transform="translate(401,244)" style="fill: rgb(78, 78, 79); --darkreader-inline-fill:#b6b0a7;" data-darkreader-inline-fill=""/><path d="M0 0 C3 1 3 1 4.25 2.8125 C5.11637742 5.33943414 4.88492145 6.52221994 4 9 C3.34 9 2.68 9 2 9 C0 6 0 6 0 3 C-0.66 2.67 -1.32 2.34 -2 2 C-1.34 1.34 -0.68 0.68 0 0 Z " transform="translate(178,200)" style="fill: rgb(82, 82, 85); --darkreader-inline-fill:#b3ada3;" data-darkreader-inline-fill=""/><path d="M0 0 C2.375 -0.125 2.375 -0.125 5 0 C7 2 7 2 7 6 C7.66 6 8.32 6 9 6 C9 7.32 9 8.64 9 10 C8.34 10 7.68 10 7 10 C5 7 5 7 5 4 C4.34 4 3.68 4 3 4 C3 3.01 3 2.02 3 1 C2.01 0.67 1.02 0.34 0 0 Z " transform="translate(207,348)" style="fill: rgb(67, 67, 68); --darkreader-inline-fill:#bdb8af;" data-darkreader-inline-fill=""/><path d="M0 0 C0 0.66 0 1.32 0 2 C-0.66 2 -1.32 2 -2 2 C-2 2.66 -2 3.32 -2 4 C-4.90548882 6.04169485 -6.40142046 7 -10 7 C-10 6.34 -10 5.68 -10 5 C-9.34 5 -8.68 5 -8 5 C-8 4.34 -8 3.68 -8 3 C-7.34 3 -6.68 3 -6 3 C-6 2.34 -6 1.68 -6 1 C-3.92446352 0.4465236 -2.15634036 0 0 0 Z " transform="translate(399,255)" style="fill: rgb(71, 71, 75); --darkreader-inline-fill:#bab4ab;" data-darkreader-inline-fill=""/><path d="M0 0 C0.33 0 0.66 0 1 0 C1 5.94 1 11.88 1 18 C0.67 18 0.34 18 0 18 C-0.33 15.36 -0.66 12.72 -1 10 C-1.33 10 -1.66 10 -2 10 C-2 7.69 -2 5.38 -2 3 C-1.34 3 -0.68 3 0 3 C0 2.01 0 1.02 0 0 Z " transform="translate(314,243)" style="fill: rgb(44, 44, 47); --darkreader-inline-fill:#cbc7c0;" data-darkreader-inline-fill=""/><path d="M0 0 C0.66 0.33 1.32 0.66 2 1 C2 2.98 2 4.96 2 7 C1.34 7 0.68 7 0 7 C0 8.32 0 9.64 0 11 C-0.66 11 -1.32 11 -2 11 C-2.28571429 3.57142857 -2.28571429 3.57142857 0 0 Z " transform="translate(142,299)" style="fill: rgb(72, 72, 74); --darkreader-inline-fill:#bab4ab;" data-darkreader-inline-fill=""/><path d="M0 0 C1.875 0.625 1.875 0.625 4 2 C5.25 5.125 5.25 5.125 6 8 C5.34 8 4.68 8 4 8 C4 7.34 4 6.68 4 6 C2.35 5.67 0.7 5.34 -1 5 C-0.67 3.35 -0.34 1.7 0 0 Z " transform="translate(314,285)" style="fill: rgb(46, 45, 47); --darkreader-inline-fill:#cbc6c0;" data-darkreader-inline-fill=""/><path d="M0 0 C0.99 0.66 1.98 1.32 3 2 C2.625 4.9375 2.625 4.9375 2 8 C1.01 8.495 1.01 8.495 0 9 C-0.66 8.67 -1.32 8.34 -2 8 C-2 6.68 -2 5.36 -2 4 C-1.34 4 -0.68 4 0 4 C0 2.68 0 1.36 0 0 Z " transform="translate(310,263)" style="fill: rgb(45, 43, 46); --darkreader-inline-fill:#ccc7c1;" data-darkreader-inline-fill=""/><path d="M0 0 C0.33 1.32 0.66 2.64 1 4 C-2 6 -2 6 -5 6 C-5 6.66 -5 7.32 -5 8 C-6.32 8 -7.64 8 -9 8 C-9 7.34 -9 6.68 -9 6 C-8.01 6 -7.02 6 -6 6 C-6 5.34 -6 4.68 -6 4 C-5.01 4 -4.02 4 -3 4 C-3 3.34 -3 2.68 -3 2 C-2.01 2 -1.02 2 0 2 C0 1.34 0 0.68 0 0 Z " transform="translate(379,266)" style="fill: rgb(60, 60, 63); --darkreader-inline-fill:#c1bcb4;" data-darkreader-inline-fill=""/><path d="M0 0 C0.66 0 1.32 0 2 0 C2 1.32 2 2.64 2 4 C2.66 4 3.32 4 4 4 C4 6.31 4 8.62 4 11 C3.34 11 2.68 11 2 11 C2 9.35 2 7.7 2 6 C1.34 6 0.68 6 0 6 C0 4.02 0 2.04 0 0 Z " transform="translate(360,308)" style="fill: rgb(70, 70, 72); --darkreader-inline-fill:#bbb5ac;" data-darkreader-inline-fill=""/><path d="M0 0 C0.99 0 1.98 0 3 0 C3 0.66 3 1.32 3 2 C4.32 2 5.64 2 7 2 C7 3.32 7 4.64 7 6 C5.68 6.33 4.36 6.66 3 7 C3 6.01 3 5.02 3 4 C2.34 4 1.68 4 1 4 C0.67 2.68 0.34 1.36 0 0 Z " transform="translate(143,282)" style="fill: rgb(71, 71, 73); --darkreader-inline-fill:#bbb5ac;" data-darkreader-inline-fill=""/><path d="M0 0 C0.33 1.32 0.66 2.64 1 4 C1.66 4 2.32 4 3 4 C3.66 5.65 4.32 7.3 5 9 C4.01 9.66 3.02 10.32 2 11 C0.5393715 8.35261084 0 7.10551666 0 4 C-0.66 3.67 -1.32 3.34 -2 3 C-1.34 2.01 -0.68 1.02 0 0 Z " transform="translate(235,389)" style="fill: rgb(75, 75, 77); --darkreader-inline-fill:#b8b2a9;" data-darkreader-inline-fill=""/><path d="M0 0 C2 1.125 2 1.125 4 3 C4.25 6.1875 4.25 6.1875 4 9 C3.01 9 2.02 9 1 9 C0.67 6.03 0.34 3.06 0 0 Z " transform="translate(368,331)" style="fill: rgb(64, 64, 67); --darkreader-inline-fill:#bfb9b1;" data-darkreader-inline-fill=""/><path d="M0 0 C0.99 0.33 1.98 0.66 3 1 C3 2.32 3 3.64 3 5 C3.66 5 4.32 5 5 5 C5 6.32 5 7.64 5 9 C4.34 9 3.68 9 3 9 C3 8.34 3 7.68 3 7 C2.34 7 1.68 7 1 7 C1 5.68 1 4.36 1 3 C0.34 3 -0.32 3 -1 3 C-0.67 2.01 -0.34 1.02 0 0 Z " transform="translate(185,213)" style="fill: rgb(66, 66, 67); --darkreader-inline-fill:#beb8b0;" data-darkreader-inline-fill=""/><path d="M0 0 C0 0.99 0 1.98 0 3 C0.66 3 1.32 3 2 3 C2 4.65 2 6.3 2 8 C1.01 8.495 1.01 8.495 0 9 C-0.99 6.36 -1.98 3.72 -3 1 C-2 0 -2 0 0 0 Z " transform="translate(232,382)" style="fill: rgb(80, 79, 80); --darkreader-inline-fill:#b6afa6;" data-darkreader-inline-fill=""/><path d="M0 0 C0 0.66 0 1.32 0 2 C-0.99 2 -1.98 2 -3 2 C-2.67 2.99 -2.34 3.98 -2 5 C-3.65 4.67 -5.3 4.34 -7 4 C-7.33 3.01 -7.66 2.02 -8 1 C-5.07175348 0.02391783 -3.04386724 -0.08226668 0 0 Z " transform="translate(203,346)" style="fill: rgb(45, 45, 49); --darkreader-inline-fill:#cac6bf;" data-darkreader-inline-fill=""/><path d="M0 0 C1.32 0 2.64 0 4 0 C4 0.66 4 1.32 4 2 C5.65 1.67 7.3 1.34 9 1 C8.34 2.32 7.68 3.64 7 5 C4.0625 4.1875 4.0625 4.1875 1 3 C0.67 2.01 0.34 1.02 0 0 Z " transform="translate(289,312)" style="fill: rgb(44, 44, 47); --darkreader-inline-fill:#cbc7c0;" data-darkreader-inline-fill=""/><path d="M0 0 C0.99 0.33 1.98 0.66 3 1 C2.45912682 4.78611227 0.88277668 6.55400767 -2 9 C-2.66 9 -3.32 9 -4 9 C-3.42618522 5.67187429 -2.40619252 4.30157545 0 2 C0 1.34 0 0.68 0 0 Z " transform="translate(215,211)" style="fill: rgb(72, 72, 73); --darkreader-inline-fill:#bab4ab;" data-darkreader-inline-fill=""/><path d="M0 0 C1.5 1.1875 1.5 1.1875 3 3 C3.1875 5.6875 3.1875 5.6875 3 8 C3.66 8.33 4.32 8.66 5 9 C3.68 9 2.36 9 1 9 C-1.09230769 4.56923077 -1.09230769 4.56923077 -0.625 1.6875 C-0.41875 1.130625 -0.2125 0.57375 0 0 Z " transform="translate(353,288)" style="fill: rgb(64, 64, 67); --darkreader-inline-fill:#bfb9b1;" data-darkreader-inline-fill=""/><path d="M0 0 C1.32 0 2.64 0 4 0 C4 1.65 4 3.3 4 5 C1.36 4.67 -1.28 4.34 -4 4 C-4 3.34 -4 2.68 -4 2 C-2.68 2 -1.36 2 0 2 C0 1.34 0 0.68 0 0 Z " transform="translate(275,194)" style="fill: rgb(76, 76, 78); --darkreader-inline-fill:#b7b1a8;" data-darkreader-inline-fill=""/><path d="M0 0 C0 1.65 0 3.3 0 5 C0.66 5.33 1.32 5.66 2 6 C0.02 6.99 0.02 6.99 -2 8 C-3 7 -3 7 -3.1875 4.5625 C-2.85365854 0 -2.85365854 0 0 0 Z " transform="translate(73,296)" style="fill: rgb(45, 43, 48); --darkreader-inline-fill:#cbc7c0;" data-darkreader-inline-fill=""/><path d="M0 0 C0.66 0 1.32 0 2 0 C2 1.65 2 3.3 2 5 C1.34 5 0.68 5 0 5 C0 6.32 0 7.64 0 9 C-0.66 9 -1.32 9 -2 9 C-2 7.02 -2 5.04 -2 3 C-1.34 3 -0.68 3 0 3 C0 2.01 0 1.02 0 0 Z " transform="translate(310,219)" style="fill: rgb(58, 58, 63); --darkreader-inline-fill:#c2bcb4;" data-darkreader-inline-fill=""/><path d="M0 0 C0.66 0 1.32 0 2 0 C2.33 1.98 2.66 3.96 3 6 C2.34 6 1.68 6 1 6 C0.67 6.99 0.34 7.98 0 9 C-1.10844919 5.67465243 -0.84454356 3.37817425 0 0 Z " transform="translate(355,192)" style="fill: rgb(49, 49, 50); --darkreader-inline-fill:#c9c4bd;" data-darkreader-inline-fill=""/><path d="M0 0 C0.66 0 1.32 0 2 0 C0.34832443 3.5786304 -1.78286492 6.74820188 -4 10 C-5 7 -5 7 -4 4 C-3.34 4 -2.68 4 -2 4 C-2 3.34 -2 2.68 -2 2 C-1.34 2 -0.68 2 0 2 C0 1.34 0 0.68 0 0 Z " transform="translate(98,149)" style="fill: rgb(59, 59, 60); --darkreader-inline-fill:#c2bdb5;" data-darkreader-inline-fill=""/><path d="M0 0 C0.33 0.66 0.66 1.32 1 2 C1.99 2.33 2.98 2.66 4 3 C2.35 4.65 0.7 6.3 -1 8 C-2.2077558 4.37673261 -1.54311128 3.35853631 0 0 Z " transform="translate(328,316)" style="fill: rgb(47, 46, 49); --darkreader-inline-fill:#cac5be;" data-darkreader-inline-fill=""/><path d="M0 0 C0.66 0.33 1.32 0.66 2 1 C1.67 2.65 1.34 4.3 1 6 C-0.32 6 -1.64 6 -3 6 C-1.125 1.125 -1.125 1.125 0 0 Z " transform="translate(207,272)" style="fill: rgb(49, 49, 51); --darkreader-inline-fill:#c8c4bd;" data-darkreader-inline-fill=""/><path d="M0 0 C0.33 0 0.66 0 1 0 C1.33 2.64 1.66 5.28 2 8 C1.01 8 0.02 8 -1 8 C-1 10.31 -1 12.62 -1 15 C-1.66 14.67 -2.32 14.34 -3 14 C-2.40380045 9.13103697 -1.43023178 4.67209049 0 0 Z " transform="translate(72,198)" style="fill: rgb(44, 44, 47); --darkreader-inline-fill:#cbc7c0;" data-darkreader-inline-fill=""/><path d="M0 0 C0.66 0 1.32 0 2 0 C2 0.66 2 1.32 2 2 C2.66 2 3.32 2 4 2 C4 2.66 4 3.32 4 4 C4.66 4 5.32 4 6 4 C5.67 5.32 5.34 6.64 5 8 C4.67 7.34 4.34 6.68 4 6 C3.34 6 2.68 6 2 6 C2 5.01 2 4.02 2 3 C1.34 3 0.68 3 0 3 C0 2.01 0 1.02 0 0 Z " transform="translate(282,142)" style="fill: rgb(74, 74, 76); --darkreader-inline-fill:#b9b3a9;" data-darkreader-inline-fill=""/><path d="M0 0 C0 0.99 0 1.98 0 3 C0.66 3 1.32 3 2 3 C1.67 4.65 1.34 6.3 1 8 C0.67 7.01 0.34 6.02 0 5 C-0.66 5 -1.32 5 -2 5 C-2 4.01 -2 3.02 -2 2 C-2.66 1.67 -3.32 1.34 -4 1 C-2 0 -2 0 0 0 Z " transform="translate(280,133)" style="fill: rgb(75, 75, 77); --darkreader-inline-fill:#b8b2a9;" data-darkreader-inline-fill=""/><path d="M0 0 C0.625 1.875 0.625 1.875 1 4 C-1 6 -1 6 -5 6 C-3.86695008 2.60085025 -2.87481525 1.94745549 0 0 Z " transform="translate(327,316)" style="fill: rgb(68, 59, 69); --darkreader-inline-fill:#c0bab2;" data-darkreader-inline-fill=""/><path d="M0 0 C0.66 0 1.32 0 2 0 C2 1.65 2 3.3 2 5 C2.66 5 3.32 5 4 5 C4 5.66 4 6.32 4 7 C2.68 7.33 1.36 7.66 0 8 C0 5.36 0 2.72 0 0 Z " transform="translate(144,204)" style="fill: rgb(70, 70, 72); --darkreader-inline-fill:#bbb5ac;" data-darkreader-inline-fill=""/><path d="M0 0 C1.98 0.99 1.98 0.99 4 2 C4 3.65 4 5.3 4 7 C3.34 7 2.68 7 2 7 C2 6.01 2 5.02 2 4 C1.34 4 0.68 4 0 4 C0 2.68 0 1.36 0 0 Z " transform="translate(216,358)" style="fill: rgb(70, 69, 71); --darkreader-inline-fill:#bcb6ad;" data-darkreader-inline-fill=""/><path d="M0 0 C1.98 0.99 1.98 0.99 4 2 C4 3.32 4 4.64 4 6 C3.01 6 2.02 6 1 6 C0.67 4.02 0.34 2.04 0 0 Z " transform="translate(320,295)" style="fill: rgb(44, 43, 45); --darkreader-inline-fill:#ccc8c1;" data-darkreader-inline-fill=""/><path d="M0 0 C1.32 0.33 2.64 0.66 4 1 C2.02 3.97 2.02 3.97 0 7 C-0.66 6.01 -1.32 5.02 -2 4 C-1.34 2.68 -0.68 1.36 0 0 Z " transform="translate(182,291)" style="fill: rgb(64, 64, 65); --darkreader-inline-fill:#bfbab1;" data-darkreader-inline-fill=""/><path d="M0 0 C0.66 0 1.32 0 2 0 C1.49396008 2.16874252 1.00016187 3.99967627 0 6 C-0.66 6 -1.32 6 -2 6 C-2 6.66 -2 7.32 -2 8 C-2.66 8 -3.32 8 -4 8 C-2.87548273 5.0280615 -1.77706209 2.66559313 0 0 Z " transform="translate(290,280)" style="fill: rgb(56, 56, 60); --darkreader-inline-fill:#c3beb6;" data-darkreader-inline-fill=""/><path d="M0 0 C0.99 0 1.98 0 3 0 C2.67 3.3 2.34 6.6 2 10 C0 8 0 8 -0.1953125 6.0546875 C-0.09765625 3.02734375 -0.09765625 3.02734375 0 0 Z " transform="translate(190,233)" style="fill: rgb(62, 62, 68); --darkreader-inline-fill:#bfb9b1;" data-darkreader-inline-fill=""/><path d="M0 0 C0.33 1.32 0.66 2.64 1 4 C1.66 4 2.32 4 3 4 C3 5.32 3 6.64 3 8 C1.68 7.34 0.36 6.68 -1 6 C-0.67 4.02 -0.34 2.04 0 0 Z " transform="translate(293,222)" style="fill: rgb(68, 68, 69); --darkreader-inline-fill:#bdb7ae;" data-darkreader-inline-fill=""/><path d="M0 0 C1.98 0 3.96 0 6 0 C6 0.66 6 1.32 6 2 C4.68 2 3.36 2 2 2 C2 2.66 2 3.32 2 4 C0.68 3.67 -0.64 3.34 -2 3 C-1.34 2.67 -0.68 2.34 0 2 C0 1.34 0 0.68 0 0 Z " transform="translate(115,226)" style="fill: rgb(76, 76, 79); --darkreader-inline-fill:#b7b1a7;" data-darkreader-inline-fill=""/><path d="M0 0 C0.66 0 1.32 0 2 0 C2 1.32 2 2.64 2 4 C1.34 4 0.68 4 0 4 C-0.33 5.32 -0.66 6.64 -1 8 C-1.625 5.6875 -1.625 5.6875 -2 3 C-1.34 2.01 -0.68 1.02 0 0 Z " transform="translate(278,364)" style="fill: rgb(70, 70, 74); --darkreader-inline-fill:#bbb5ac;" data-darkreader-inline-fill=""/><path d="M0 0 C0.66 0 1.32 0 2 0 C2 0.66 2 1.32 2 2 C2.66 2 3.32 2 4 2 C4 3.98 4 5.96 4 8 C3.34 6.68 2.68 5.36 2 4 C1.34 4 0.68 4 0 4 C0 2.68 0 1.36 0 0 Z " transform="translate(306,231)" style="fill: rgb(65, 65, 66); --darkreader-inline-fill:#bfb9b1;" data-darkreader-inline-fill=""/><path d="M0 0 C1.9375 0.6875 1.9375 0.6875 4 2 C4.75 4.625 4.75 4.625 5 7 C4.01 7 3.02 7 2 7 C0.5393715 4.35261084 0 3.10551666 0 0 Z " transform="translate(184,218)" style="fill: rgb(46, 47, 49); --darkreader-inline-fill:#cac5be;" data-darkreader-inline-fill=""/><path d="M0 0 C1.98 0.99 1.98 0.99 4 2 C4 2.66 4 3.32 4 4 C4.66 4 5.32 4 6 4 C5.67 4.99 5.34 5.98 5 7 C4.01 6.67 3.02 6.34 2 6 C0.8125 2.9375 0.8125 2.9375 0 0 Z " transform="translate(316,176)" style="fill: rgb(80, 76, 81); --darkreader-inline-fill:#b6b0a7;" data-darkreader-inline-fill=""/><path d="M0 0 C0.66 0 1.32 0 2 0 C2 1.32 2 2.64 2 4 C2.66 4 3.32 4 4 4 C4 4.66 4 5.32 4 6 C2.68 6 1.36 6 0 6 C0 5.01 0 4.02 0 3 C-0.66 2.67 -1.32 2.34 -2 2 C-1.34 2 -0.68 2 0 2 C0 1.34 0 0.68 0 0 Z " transform="translate(270,118)" style="fill: rgb(73, 73, 74); --darkreader-inline-fill:#bab4ab;" data-darkreader-inline-fill=""/><path d="M0 0 C0.66 0 1.32 0 2 0 C1.67 1.32 1.34 2.64 1 4 C0.34 4 -0.32 4 -1 4 C-1 4.66 -1 5.32 -1 6 C-1.99 5.67 -2.98 5.34 -4 5 C-2.71937515 3.2925002 -1.38232443 1.62626404 0 0 Z " transform="translate(257,397)" style="fill: rgb(49, 49, 51); --darkreader-inline-fill:#c8c4bd;" data-darkreader-inline-fill=""/><path d="M0 0 C0.66 0.33 1.32 0.66 2 1 C2 2.98 2 4.96 2 7 C1.34 7 0.68 7 0 7 C-0.38133299 5.0085944 -0.71325582 3.00720923 -1 1 C-0.67 0.67 -0.34 0.34 0 0 Z " transform="translate(298,249)" style="fill: rgb(38, 36, 40); --darkreader-inline-fill:#d0ccc6;" data-darkreader-inline-fill=""/><path d="M0 0 C1.65 0 3.3 0 5 0 C5 0.66 5 1.32 5 2 C4.01 2 3.02 2 2 2 C2 2.66 2 3.32 2 4 C1.01 4 0.02 4 -1 4 C-0.67 2.68 -0.34 1.36 0 0 Z " transform="translate(108,230)" style="fill: rgb(93, 93, 96); --darkreader-inline-fill:#aca59a;" data-darkreader-inline-fill=""/><path d="M0 0 C0.33 1.32 0.66 2.64 1 4 C0.34 4 -0.32 4 -1 4 C-1 4.99 -1 5.98 -1 7 C-1.99 6.67 -2.98 6.34 -4 6 C-1.125 1.125 -1.125 1.125 0 0 Z " transform="translate(233,113)" style="fill: rgb(77, 77, 78); --darkreader-inline-fill:#b7b1a7;" data-darkreader-inline-fill=""/></svg>